<svg width="322" height="243" viewBox="0 0 322 243" fill="none" xmlns="http://www.w3.org/2000/svg">
<g clip-path="url(#clip0_68_2106)">
<rect width="322" height="243" rx="10" fill="#365836"/>
<circle opacity="0.5" cx="28" cy="21" r="50" fill="#FFA500"/>
<circle opacity="0.5" cx="296" cy="220" r="50" fill="#228B22"/>
<path fill-rule="evenodd" clip-rule="evenodd" d="M142.323 103.739C142.323 104.354 142.792 104.867 143.405 104.909C143.792 104.936 144.223 104.962 144.699 104.989H148.713C155.65 104.989 160.811 103.241 164.197 99.7458C165.084 98.8303 165.857 97.8223 166.516 96.7216C166.64 96.5131 166.659 96.2587 166.573 96.0314C165.907 94.2643 165.258 92.5299 164.626 90.8281C164.453 90.3621 164.008 90.0527 163.511 90.0527H150.387C150.209 90.0527 150.034 90.0923 149.875 90.1686L143 93.4502C142.587 93.6475 142.323 94.0648 142.323 94.5229V103.739ZM179.312 97.4772C178.871 97.0361 178.119 97.2042 177.878 97.7797C176.349 101.384 174.164 104.415 171.324 106.873C168.539 109.276 165.153 111.078 161.166 112.28C157.233 113.427 152.864 114 148.058 114C145.764 114 143.17 113.891 140.275 113.672C137.719 113.528 135.269 113.213 132.926 112.727C132.384 112.615 132.001 112.133 132.001 111.578V58.3397C132.001 57.7855 132.384 57.3033 132.926 57.1911C135.275 56.7056 137.752 56.3905 140.357 56.2458C143.306 56.0819 145.928 56 148.222 56C152.973 56 157.315 56.5734 161.248 57.7203C165.18 58.8126 168.539 60.5603 171.324 62.9633C174.164 65.3117 176.349 68.3154 177.878 71.9746C178.631 73.7505 179.199 75.6987 179.581 77.8192C179.618 78.0239 179.871 78.1049 180.018 77.9578C180.118 77.858 180.279 77.858 180.379 77.9578L189.651 87.2301C190.116 87.6943 190.116 88.4468 189.651 88.911L180.91 97.6523C180.517 98.0453 179.88 98.0453 179.487 97.6523L179.312 97.4772ZM168.403 86.2877C168.921 86.2877 169.349 85.8788 169.355 85.3606C169.357 85.2139 169.358 85.0664 169.358 84.9181C169.358 78.4736 167.692 73.5311 164.361 70.0904C163.174 68.8651 161.756 67.858 160.105 67.069C159.911 66.976 159.712 67.1757 159.8 67.3726C161.29 70.7085 162.78 74.1961 164.27 77.8353C165.337 80.3345 166.415 82.9487 167.504 85.6781C167.651 86.0459 168.007 86.2877 168.403 86.2877ZM144.519 82.1958C144.292 82.7755 144.552 83.4318 145.114 83.6999L150.283 86.1675C150.443 86.2439 150.618 86.2835 150.795 86.2835H161.185C162.019 86.2835 162.594 85.4468 162.292 84.6693C160.794 80.8142 159.331 77.1932 157.903 73.8062C156.779 71.1404 155.633 68.5057 154.466 65.902C154.302 65.5359 153.964 65.2762 153.567 65.2229C153.228 65.1775 152.884 65.1374 152.535 65.1026C152.038 65.053 151.57 65.3334 151.365 65.789C150.18 68.4294 149.018 71.1018 147.878 73.8062C146.79 76.4592 145.671 79.2557 144.519 82.1958ZM146.252 67.3726C146.361 67.1299 146.469 66.8871 146.579 66.6444C146.937 65.8494 146.352 64.947 145.48 64.9729C144.669 64.997 143.965 65.031 143.368 65.075C142.77 65.119 142.323 65.625 142.323 66.2244V70.5596C142.323 71.8542 144.114 72.2222 144.633 71.0361C145.176 69.7953 145.715 68.5741 146.252 67.3726Z" fill="url(#paint0_linear_68_2106)"/>
<path d="M112.949 171.27C112.949 173.199 112.598 174.812 111.895 176.109C111.191 177.398 110.172 178.371 108.836 179.027C107.508 179.676 105.895 180 103.996 180H99.3438V162.867H104.512C106.254 162.867 107.754 163.188 109.012 163.828C110.27 164.461 111.238 165.402 111.918 166.652C112.605 167.895 112.949 169.434 112.949 171.27ZM110.852 171.34C110.852 169.801 110.594 168.531 110.078 167.531C109.57 166.531 108.82 165.789 107.828 165.305C106.844 164.812 105.637 164.566 104.207 164.566H101.336V178.289H103.762C106.121 178.289 107.891 177.707 109.07 176.543C110.258 175.379 110.852 173.645 110.852 171.34ZM121.27 166.945C122.801 166.945 123.938 167.289 124.68 167.977C125.422 168.664 125.793 169.762 125.793 171.27V180H124.375L124 178.102H123.906C123.547 178.57 123.172 178.965 122.781 179.285C122.391 179.598 121.938 179.836 121.422 180C120.914 180.156 120.289 180.234 119.547 180.234C118.766 180.234 118.07 180.098 117.461 179.824C116.859 179.551 116.383 179.137 116.031 178.582C115.688 178.027 115.516 177.324 115.516 176.473C115.516 175.191 116.023 174.207 117.039 173.52C118.055 172.832 119.602 172.457 121.68 172.395L123.895 172.301V171.516C123.895 170.406 123.656 169.629 123.18 169.184C122.703 168.738 122.031 168.516 121.164 168.516C120.492 168.516 119.852 168.613 119.242 168.809C118.633 169.004 118.055 169.234 117.508 169.5L116.91 168.023C117.488 167.727 118.152 167.473 118.902 167.262C119.652 167.051 120.441 166.945 121.27 166.945ZM123.871 173.672L121.914 173.754C120.312 173.816 119.184 174.078 118.527 174.539C117.871 175 117.543 175.652 117.543 176.496C117.543 177.23 117.766 177.773 118.211 178.125C118.656 178.477 119.246 178.652 119.98 178.652C121.121 178.652 122.055 178.336 122.781 177.703C123.508 177.07 123.871 176.121 123.871 174.855V173.672ZM135.836 166.922C137.438 166.922 138.715 167.473 139.668 168.574C140.621 169.676 141.098 171.332 141.098 173.543C141.098 175.004 140.879 176.23 140.441 177.223C140.004 178.215 139.387 178.965 138.59 179.473C137.801 179.98 136.867 180.234 135.789 180.234C135.109 180.234 134.512 180.145 133.996 179.965C133.48 179.785 133.039 179.543 132.672 179.238C132.305 178.934 132 178.602 131.758 178.242H131.617C131.641 178.547 131.668 178.914 131.699 179.344C131.738 179.773 131.758 180.148 131.758 180.469V185.742H129.801V167.156H131.406L131.664 169.055H131.758C132.008 168.664 132.312 168.309 132.672 167.988C133.031 167.66 133.469 167.402 133.984 167.215C134.508 167.02 135.125 166.922 135.836 166.922ZM135.496 168.562C134.605 168.562 133.887 168.734 133.34 169.078C132.801 169.422 132.406 169.938 132.156 170.625C131.906 171.305 131.773 172.16 131.758 173.191V173.566C131.758 174.652 131.875 175.57 132.109 176.32C132.352 177.07 132.746 177.641 133.293 178.031C133.848 178.422 134.59 178.617 135.52 178.617C136.316 178.617 136.98 178.402 137.512 177.973C138.043 177.543 138.438 176.945 138.695 176.18C138.961 175.406 139.094 174.52 139.094 173.52C139.094 172.004 138.797 170.801 138.203 169.91C137.617 169.012 136.715 168.562 135.496 168.562ZM146.441 167.156V180H144.496V167.156H146.441ZM145.492 162.352C145.812 162.352 146.086 162.457 146.312 162.668C146.547 162.871 146.664 163.191 146.664 163.629C146.664 164.059 146.547 164.379 146.312 164.59C146.086 164.801 145.812 164.906 145.492 164.906C145.156 164.906 144.875 164.801 144.648 164.59C144.43 164.379 144.32 164.059 144.32 163.629C144.32 163.191 144.43 162.871 144.648 162.668C144.875 162.457 145.156 162.352 145.492 162.352ZM176.559 162.867L171.977 180H169.973L166.574 168.469C166.473 168.141 166.375 167.812 166.281 167.484C166.195 167.148 166.113 166.832 166.035 166.535C165.957 166.23 165.891 165.965 165.836 165.738C165.789 165.504 165.754 165.328 165.73 165.211C165.715 165.328 165.684 165.5 165.637 165.727C165.598 165.953 165.543 166.215 165.473 166.512C165.41 166.809 165.332 167.125 165.238 167.461C165.152 167.797 165.059 168.137 164.957 168.48L161.652 180H159.648L155.102 162.867H157.176L159.93 173.613C160.023 173.973 160.109 174.328 160.188 174.68C160.273 175.023 160.348 175.359 160.41 175.688C160.48 176.016 160.543 176.336 160.598 176.648C160.652 176.961 160.703 177.266 160.75 177.562C160.789 177.258 160.84 176.941 160.902 176.613C160.965 176.277 161.031 175.938 161.102 175.594C161.18 175.25 161.262 174.902 161.348 174.551C161.441 174.199 161.539 173.848 161.641 173.496L164.723 162.867H166.773L169.984 173.578C170.094 173.945 170.195 174.309 170.289 174.668C170.383 175.027 170.465 175.379 170.535 175.723C170.613 176.059 170.68 176.383 170.734 176.695C170.797 177 170.852 177.289 170.898 177.562C170.953 177.18 171.02 176.777 171.098 176.355C171.176 175.934 171.266 175.492 171.367 175.031C171.477 174.57 171.594 174.094 171.719 173.602L174.473 162.867H176.559ZM183.777 166.945C185.309 166.945 186.445 167.289 187.188 167.977C187.93 168.664 188.301 169.762 188.301 171.27V180H186.883L186.508 178.102H186.414C186.055 178.57 185.68 178.965 185.289 179.285C184.898 179.598 184.445 179.836 183.93 180C183.422 180.156 182.797 180.234 182.055 180.234C181.273 180.234 180.578 180.098 179.969 179.824C179.367 179.551 178.891 179.137 178.539 178.582C178.195 178.027 178.023 177.324 178.023 176.473C178.023 175.191 178.531 174.207 179.547 173.52C180.562 172.832 182.109 172.457 184.188 172.395L186.402 172.301V171.516C186.402 170.406 186.164 169.629 185.688 169.184C185.211 168.738 184.539 168.516 183.672 168.516C183 168.516 182.359 168.613 181.75 168.809C181.141 169.004 180.562 169.234 180.016 169.5L179.418 168.023C179.996 167.727 180.66 167.473 181.41 167.262C182.16 167.051 182.949 166.945 183.777 166.945ZM186.379 173.672L184.422 173.754C182.82 173.816 181.691 174.078 181.035 174.539C180.379 175 180.051 175.652 180.051 176.496C180.051 177.23 180.273 177.773 180.719 178.125C181.164 178.477 181.754 178.652 182.488 178.652C183.629 178.652 184.562 178.336 185.289 177.703C186.016 177.07 186.379 176.121 186.379 174.855V173.672ZM194.266 180H192.309V161.766H194.266V180ZM200.336 180H198.379V161.766H200.336V180ZM209.395 166.922C210.488 166.922 211.426 167.164 212.207 167.648C212.988 168.133 213.586 168.812 214 169.688C214.414 170.555 214.621 171.57 214.621 172.734V173.941H205.75C205.773 175.449 206.148 176.598 206.875 177.387C207.602 178.176 208.625 178.57 209.945 178.57C210.758 178.57 211.477 178.496 212.102 178.348C212.727 178.199 213.375 177.98 214.047 177.691V179.402C213.398 179.691 212.754 179.902 212.113 180.035C211.48 180.168 210.73 180.234 209.863 180.234C208.629 180.234 207.551 179.984 206.629 179.484C205.715 178.977 205.004 178.234 204.496 177.258C203.988 176.281 203.734 175.086 203.734 173.672C203.734 172.289 203.965 171.094 204.426 170.086C204.895 169.07 205.551 168.289 206.395 167.742C207.246 167.195 208.246 166.922 209.395 166.922ZM209.371 168.516C208.332 168.516 207.504 168.855 206.887 169.535C206.27 170.215 205.902 171.164 205.785 172.383H212.582C212.574 171.617 212.453 170.945 212.219 170.367C211.992 169.781 211.645 169.328 211.176 169.008C210.707 168.68 210.105 168.516 209.371 168.516ZM222.074 178.641C222.395 178.641 222.723 178.613 223.059 178.559C223.395 178.504 223.668 178.438 223.879 178.359V179.871C223.652 179.973 223.336 180.059 222.93 180.129C222.531 180.199 222.141 180.234 221.758 180.234C221.078 180.234 220.461 180.117 219.906 179.883C219.352 179.641 218.906 179.234 218.57 178.664C218.242 178.094 218.078 177.305 218.078 176.297V168.68H216.25V167.73L218.09 166.969L218.863 164.18H220.035V167.156H223.797V168.68H220.035V176.238C220.035 177.043 220.219 177.645 220.586 178.043C220.961 178.441 221.457 178.641 222.074 178.641Z" fill="white"/>
</g>
<defs>
<linearGradient id="paint0_linear_68_2106" x1="141.383" y1="56" x2="176.274" y2="108.582" gradientUnits="userSpaceOnUse">
<stop stop-color="#FFA500"/>
<stop offset="0.145833" stop-color="#228B22"/>
<stop offset="0.291667" stop-color="#929811"/>
<stop offset="0.442708" stop-color="#7E9614"/>
<stop offset="0.557292" stop-color="#C39E09"/>
<stop offset="0.677083" stop-color="#D59219"/>
<stop offset="0.791667" stop-color="#949810"/>
<stop offset="0.890625" stop-color="#6D9416"/>
<stop offset="1" stop-color="#228B22"/>
</linearGradient>
<clipPath id="clip0_68_2106">
<rect width="322" height="243" rx="10" fill="white"/>
</clipPath>
</defs>
</svg>
