<svg width="405" height="405" viewBox="0 0 405 405" fill="none" xmlns="http://www.w3.org/2000/svg">
<path d="M364.419 322.777H337.592V322.979H364.419V322.777Z" fill="#EBEBEB"/>
<path d="M268.288 324.98H261.249V325.183H268.288V324.98Z" fill="#EBEBEB"/>
<path d="M336.782 315.26H321.238V315.463H336.782V315.26Z" fill="#EBEBEB"/>
<path d="M77.4765 316.621H42.4926V316.823H77.4765V316.621Z" fill="#EBEBEB"/>
<path d="M89.8209 316.621H84.6936V316.823H89.8209V316.621Z" fill="#EBEBEB"/>
<path d="M182.372 320.039H106.491V320.242H182.372V320.039Z" fill="#EBEBEB"/>
<path d="M193.104 273.618H36.693C35.4664 273.618 34.29 273.131 33.4226 272.263C32.5552 271.396 32.0679 270.22 32.0679 268.993V49.1346C32.0786 47.915 32.5706 46.7489 33.4368 45.8903C34.303 45.0317 35.4734 44.5499 36.693 44.55H193.104C193.711 44.55 194.313 44.6696 194.874 44.9021C195.435 45.1345 195.945 45.4752 196.374 45.9046C196.804 46.3341 197.145 46.844 197.377 47.4051C197.609 47.9663 197.729 48.5677 197.729 49.1751V268.993C197.729 269.6 197.609 270.202 197.377 270.763C197.145 271.324 196.804 271.834 196.374 272.263C195.945 272.693 195.435 273.033 194.874 273.266C194.313 273.498 193.711 273.618 193.104 273.618ZM36.693 44.712C35.5207 44.7141 34.3971 45.1808 33.5681 46.0097C32.7392 46.8386 32.2726 47.9623 32.2704 49.1346V268.993C32.2726 270.165 32.7392 271.289 33.5681 272.118C34.3971 272.947 35.5207 273.413 36.693 273.415H193.104C194.276 273.413 195.4 272.947 196.229 272.118C197.058 271.289 197.524 270.165 197.527 268.993V49.1346C197.524 47.9623 197.058 46.8386 196.229 46.0097C195.4 45.1808 194.276 44.7141 193.104 44.712H36.693Z" fill="#EBEBEB"/>
<path d="M368.307 273.618H211.896C210.669 273.618 209.493 273.131 208.626 272.263C207.758 271.396 207.271 270.22 207.271 268.993V49.1346C207.282 47.915 207.774 46.7489 208.64 45.8903C209.506 45.0317 210.676 44.5499 211.896 44.55H368.307C369.534 44.55 370.71 45.0373 371.577 45.9046C372.445 46.772 372.932 47.9484 372.932 49.1751V268.993C372.932 270.22 372.445 271.396 371.577 272.263C370.71 273.131 369.534 273.618 368.307 273.618ZM211.896 44.712C210.724 44.7141 209.6 45.1808 208.771 46.0097C207.942 46.8386 207.476 47.9623 207.473 49.1346V268.993C207.476 270.165 207.942 271.289 208.771 272.118C209.6 272.947 210.724 273.413 211.896 273.415H368.307C369.479 273.413 370.603 272.947 371.432 272.118C372.261 271.289 372.727 270.165 372.73 268.993V49.1346C372.727 47.9623 372.261 46.8386 371.432 46.0097C370.603 45.1808 369.479 44.7141 368.307 44.712H211.896Z" fill="#EBEBEB"/>
<path d="M405 309.744H0V309.947H405V309.744Z" fill="#EBEBEB"/>
<path d="M239.501 304.997H305.5V243.502H239.501V304.997Z" fill="#E6E6E6"/>
<path d="M295.002 309.882H303.426V306.941H295.002V309.882Z" fill="#E0E0E0"/>
<path d="M105.494 304.406H239.509V243.502H105.494V304.406Z" fill="#E6E6E6"/>
<path d="M83.106 309.882H103.68L103.68 238.974H83.106V309.882Z" fill="#E6E6E6"/>
<path d="M174.871 301.563H232.972V248.354H174.871V301.563Z" fill="#F5F5F5"/>
<path d="M241.121 301.563H299.222V248.354H241.121V301.563Z" fill="#F5F5F5"/>
<path d="M107.989 301.563H166.09V248.354H107.989V301.563Z" fill="#F5F5F5"/>
<path d="M103.583 238.95V309.857H108.07V308.173H303.41V309.857H307.905V238.95H103.583ZM303.41 271.058H241.68V245.616H303.41V271.058ZM241.68 301.563V274.873H303.41V301.563H241.68ZM174.871 245.616H237.184V301.563H174.871V245.616ZM108.07 274.873H170.383V301.563H108.07V274.873ZM108.07 245.616H170.383V271.083H108.07V245.616Z" fill="#228B22"/>
<path d="M265.307 255.385H275.027C275.276 255.386 275.522 255.338 275.752 255.244C275.982 255.149 276.191 255.01 276.367 254.835C276.543 254.66 276.683 254.451 276.778 254.222C276.874 253.992 276.923 253.746 276.923 253.498C276.923 253.249 276.874 253.003 276.778 252.773C276.683 252.544 276.543 252.336 276.367 252.16C276.191 251.985 275.982 251.846 275.752 251.752C275.522 251.657 275.276 251.609 275.027 251.61H265.307C264.807 251.61 264.327 251.809 263.973 252.163C263.619 252.517 263.42 252.997 263.42 253.498C263.42 253.998 263.619 254.478 263.973 254.832C264.327 255.186 264.807 255.385 265.307 255.385Z" fill="#E6E6E6"/>
<path d="M183.23 278.818V269.098C183.23 268.598 183.031 268.118 182.677 267.764C182.323 267.41 181.843 267.211 181.343 267.211C181.094 267.21 180.848 267.258 180.618 267.352C180.388 267.447 180.179 267.585 180.003 267.761C179.827 267.936 179.687 268.145 179.592 268.374C179.496 268.604 179.447 268.85 179.447 269.098V278.818C179.447 279.067 179.496 279.313 179.592 279.542C179.687 279.772 179.827 279.98 180.003 280.156C180.179 280.331 180.388 280.47 180.618 280.564C180.848 280.659 181.094 280.707 181.343 280.706C181.843 280.706 182.323 280.507 182.677 280.153C183.031 279.799 183.23 279.319 183.23 278.818Z" fill="#E6E6E6"/>
<path d="M265.307 282.69H275.027C275.276 282.691 275.522 282.643 275.752 282.549C275.982 282.454 276.191 282.315 276.367 282.14C276.543 281.965 276.683 281.756 276.778 281.527C276.874 281.297 276.923 281.051 276.923 280.803C276.923 280.3 276.723 279.818 276.368 279.462C276.012 279.107 275.53 278.907 275.027 278.907H265.307C265.059 278.907 264.813 278.956 264.583 279.052C264.354 279.147 264.145 279.287 263.97 279.463C263.794 279.639 263.656 279.848 263.561 280.078C263.467 280.308 263.419 280.554 263.42 280.803C263.42 281.303 263.619 281.783 263.973 282.137C264.327 282.491 264.807 282.69 265.307 282.69Z" fill="#E6E6E6"/>
<path d="M132.184 255.385H141.904C142.404 255.385 142.885 255.186 143.238 254.832C143.592 254.478 143.791 253.998 143.791 253.498C143.791 252.997 143.592 252.517 143.238 252.163C142.885 251.809 142.404 251.61 141.904 251.61H132.184C131.683 251.61 131.203 251.809 130.849 252.163C130.495 252.517 130.297 252.997 130.297 253.498C130.297 253.998 130.495 254.478 130.849 254.832C131.203 255.186 131.683 255.385 132.184 255.385Z" fill="#E6E6E6"/>
<path d="M132.184 282.69H141.904C142.404 282.69 142.885 282.491 143.238 282.137C143.592 281.783 143.791 281.303 143.791 280.803C143.792 280.554 143.744 280.308 143.65 280.078C143.556 279.848 143.417 279.639 143.241 279.463C143.066 279.287 142.858 279.147 142.628 279.052C142.399 278.956 142.152 278.907 141.904 278.907H132.184C131.935 278.907 131.689 278.956 131.46 279.052C131.23 279.147 131.022 279.287 130.847 279.463C130.671 279.639 130.532 279.848 130.438 280.078C130.344 280.308 130.296 280.554 130.297 280.803C130.297 281.303 130.495 281.783 130.849 282.137C131.203 282.491 131.683 282.69 132.184 282.69Z" fill="#E6E6E6"/>
<path d="M57.4614 308.48H76.6746L76.6746 128.871H57.4614L57.4614 308.48Z" fill="#E0E0E0"/>
<path d="M42.4926 127.3V310.052H57.4533V127.3H42.4926Z" fill="#E6E6E6"/>
<path d="M75.9537 127.3V310.052H90.9225V127.3H75.9537Z" fill="#E6E6E6"/>
<path d="M55.6632 127.3V310.052H93.4578V127.3H55.6632ZM89.91 130.45V163.215H59.2515V130.45H89.91ZM59.2515 235.062V202.289H89.91V235.062H59.2515ZM89.8695 238.213V270.985H59.2515V238.213H89.8695ZM59.2515 199.138V166.374H89.91V199.138H59.2515ZM59.2515 306.868V274.136H89.91V306.901L59.2515 306.868Z" fill="#228B22"/>
<path d="M74.3499 138.089H69.8868V163.515H74.3499V138.089Z" fill="#EBEBEB"/>
<path d="M69.8868 138.089H66.4362V163.515H69.8868V138.089Z" fill="#E6E6E6"/>
<path d="M81.2511 138.696H74.3499V163.523H81.2511V138.696Z" fill="#E0E0E0"/>
<path d="M84.7017 138.696H81.2511V163.523H84.7017V138.696Z" fill="#EBEBEB"/>
<path d="M64.1277 138.696H59.5269V163.523H64.1277V138.696Z" fill="#EBEBEB"/>
<path d="M66.4362 138.696H64.1358V163.523H66.4362V138.696Z" fill="#FAFAFA"/>
<path d="M69.8868 199.13H74.3499V173.704H69.8868V199.13Z" fill="#E6E6E6"/>
<path d="M74.3499 199.13H77.8005V173.704H74.3499V199.13Z" fill="#EBEBEB"/>
<path d="M62.9856 199.122H69.8868V174.296H62.9856V199.122Z" fill="#EBEBEB"/>
<path d="M59.535 199.122H62.9856V174.296H59.535V199.122Z" fill="#E0E0E0"/>
<path d="M80.109 199.122H84.7098V174.296H80.109V199.122Z" fill="#EBEBEB"/>
<path d="M77.8005 199.122H80.1009V174.296H77.8005V199.122Z" fill="#F0F0F0"/>
<path d="M69.8868 235.362H74.3499V209.936H69.8868V235.362Z" fill="#E6E6E6"/>
<path d="M74.3499 235.362H77.8005V209.936H74.3499V235.362Z" fill="#EBEBEB"/>
<path d="M62.9856 235.362H69.8868V210.535H62.9856V235.362Z" fill="#EBEBEB"/>
<path d="M59.535 235.362H62.9856V210.535H59.535V235.362Z" fill="#E0E0E0"/>
<path d="M80.109 235.362H84.7098V210.535H80.109V235.362Z" fill="#EBEBEB"/>
<path d="M77.8005 235.362H80.1009V210.535H77.8005V235.362Z" fill="#F0F0F0"/>
<path d="M74.3499 246.175H69.8868V271.601H74.3499V246.175Z" fill="#EBEBEB"/>
<path d="M69.8868 246.175H66.4362V271.601H69.8868V246.175Z" fill="#E6E6E6"/>
<path d="M81.2511 246.175H74.3499V271.002H81.2511V246.175Z" fill="#E0E0E0"/>
<path d="M84.7017 246.175H81.2511V271.002H84.7017V246.175Z" fill="#EBEBEB"/>
<path d="M64.1277 246.175H59.5269V271.002H64.1277V246.175Z" fill="#EBEBEB"/>
<path d="M66.4362 246.175H64.1358V271.002H66.4362V246.175Z" fill="#FAFAFA"/>
<path d="M69.8868 307.832H74.3499V282.406H69.8868V307.832Z" fill="#E6E6E6"/>
<path d="M74.3499 307.832H77.8005V282.406H74.3499V307.832Z" fill="#EBEBEB"/>
<path d="M62.9856 307.233H69.8868V282.407H62.9856V307.233Z" fill="#EBEBEB"/>
<path d="M59.535 307.233H62.9856V282.407H59.535V307.233Z" fill="#E0E0E0"/>
<path d="M80.109 307.233H84.7098V282.407H80.109V307.233Z" fill="#FAFAFA"/>
<path d="M77.8005 307.233H80.1009V282.407H77.8005V307.233Z" fill="#F0F0F0"/>
<path d="M331.193 272.079C331.112 272.168 331.549 272.767 329.783 272.508C325.45 271.852 317.884 270.078 315.787 265.631C312.781 259.257 322.096 261.581 321.772 258.341C321.448 255.101 310.854 255.644 309.728 250.865C308.602 246.086 315.795 248.362 315.884 246.005C315.973 243.648 307.695 245.122 306.05 239.971C304.406 234.819 310.667 238.61 309.955 236.463C309.242 234.317 302.227 224.621 306.034 223.503C309.841 222.385 316.273 232.332 318.751 233.742C321.23 235.151 323.433 227.027 326.389 230.453C329.346 233.879 324.656 245.884 328.423 248.216C331.233 249.95 330.439 245.171 334.141 246.062C339.179 247.277 337.486 265.04 331.193 272.079Z" fill="#EBEBEB"/>
<path d="M317.796 246.046C319.074 246.134 320.335 246.393 321.546 246.815C320.75 245.604 319.858 244.459 318.881 243.389C318.821 243.327 318.788 243.244 318.788 243.158C318.788 243.072 318.821 242.989 318.881 242.927C318.941 242.868 319.023 242.834 319.108 242.834C319.193 242.834 319.274 242.868 319.335 242.927C321.433 245.277 323.229 247.882 324.681 250.679C325.43 245.42 324.698 240.057 322.566 235.192C322.542 235.134 322.541 235.069 322.563 235.011C322.585 234.952 322.628 234.905 322.685 234.878C322.741 234.851 322.806 234.846 322.865 234.865C322.924 234.885 322.974 234.926 323.004 234.981C323.004 235.062 326.714 242.733 325.045 251.359C325.491 252.21 325.936 253.109 326.382 254.081C327.934 257.557 329.162 261.168 330.051 264.87C331.65 261.842 332.526 258.484 332.61 255.061C332.61 255.029 332.617 254.998 332.629 254.969C332.641 254.94 332.659 254.914 332.682 254.892C332.705 254.87 332.732 254.853 332.761 254.841C332.79 254.83 332.822 254.825 332.853 254.826C332.885 254.826 332.916 254.832 332.945 254.845C332.974 254.857 333.001 254.875 333.022 254.898C333.044 254.92 333.062 254.947 333.073 254.977C333.084 255.006 333.089 255.037 333.088 255.069C333.014 258.747 332.026 262.349 330.213 265.55C331.853 272.816 332.399 280.285 331.833 287.712C331.825 287.797 331.784 287.876 331.719 287.932C331.654 287.988 331.57 288.016 331.485 288.012H331.444C331.368 287.996 331.3 287.953 331.253 287.89C331.207 287.827 331.185 287.749 331.193 287.671C331.952 278.249 330.82 268.77 327.864 259.791C326.542 258.255 324.731 257.219 322.737 256.859C322.673 256.849 322.617 256.815 322.579 256.763C322.541 256.711 322.525 256.647 322.534 256.584C322.539 256.553 322.55 256.523 322.567 256.496C322.583 256.469 322.605 256.446 322.631 256.428C322.656 256.41 322.685 256.397 322.716 256.391C322.747 256.384 322.779 256.383 322.809 256.389C324.564 256.688 326.193 257.496 327.491 258.714C326.1 254.8 324.259 251.06 322.008 247.568C320.651 246.996 319.208 246.657 317.739 246.564C317.701 246.561 317.665 246.549 317.633 246.53C317.601 246.511 317.573 246.485 317.552 246.454C317.531 246.423 317.517 246.388 317.512 246.351C317.506 246.314 317.509 246.276 317.52 246.24C317.525 246.209 317.536 246.179 317.553 246.152C317.569 246.126 317.591 246.103 317.617 246.085C317.642 246.066 317.671 246.054 317.702 246.047C317.733 246.04 317.765 246.04 317.796 246.046Z" fill="#F5F5F5"/>
<path d="M336.757 274.541C340.362 274.606 346.518 271.261 348.907 268.005C351.297 264.748 344.461 266.749 345.165 264.149C345.87 261.549 354.383 263.469 355.954 259.751C357.526 256.033 351.386 256.891 351.629 254.988C351.872 253.084 358.239 253.473 360.28 249.52C362.321 245.568 356.724 247.779 357.607 246.143C358.49 244.507 365.496 237.605 362.564 236.172C359.632 234.738 353.047 241.915 350.843 242.716C348.64 243.518 348.13 238.561 345.262 240.934C342.395 243.308 344.542 253.676 341.164 255.045C338.653 256.065 339.722 251.311 336.83 252.509C331.8 254.607 335.291 274.509 336.757 274.541Z" fill="#E0E0E0"/>
<g opacity="0.3">
<path d="M336.757 274.541C340.362 274.606 346.518 271.261 348.907 268.005C351.297 264.748 344.461 266.749 345.165 264.149C345.87 261.549 354.383 263.469 355.954 259.751C357.526 256.033 351.386 256.891 351.629 254.988C351.872 253.084 358.239 253.473 360.28 249.52C362.321 245.568 356.724 247.779 357.607 246.143C358.49 244.507 365.496 237.605 362.564 236.172C359.632 234.738 353.047 241.915 350.843 242.716C348.64 243.518 348.13 238.561 345.262 240.934C342.395 243.308 344.542 253.676 341.164 255.045C338.653 256.065 339.722 251.311 336.83 252.509C331.8 254.607 335.291 274.509 336.757 274.541Z" fill="#EBEBEB"/>
</g>
<path d="M337.948 270.208C337.92 270.202 337.893 270.189 337.871 270.171C337.849 270.152 337.831 270.129 337.819 270.103C336.435 267.081 335.876 263.747 336.199 260.439C336.201 260.407 336.209 260.376 336.223 260.347C336.237 260.319 336.257 260.293 336.281 260.272C336.305 260.251 336.333 260.235 336.364 260.225C336.394 260.214 336.426 260.21 336.458 260.212C336.522 260.219 336.581 260.249 336.623 260.297C336.665 260.345 336.687 260.408 336.685 260.472C336.408 263.609 336.909 266.767 338.143 269.665C339.631 265.638 341.469 261.749 343.634 258.042C343.353 253.1 344.525 248.183 347.004 243.899C347.042 243.855 347.095 243.826 347.153 243.818C347.211 243.81 347.269 243.822 347.318 243.854C347.368 243.885 347.404 243.933 347.42 243.989C347.437 244.045 347.433 244.105 347.409 244.158C345.113 248.149 343.959 252.694 344.072 257.296C346.664 252.849 349.757 248.712 353.29 244.968C353.35 244.909 353.432 244.876 353.516 244.876C353.601 244.876 353.683 244.909 353.743 244.968C353.774 244.998 353.798 245.033 353.814 245.072C353.831 245.111 353.839 245.153 353.839 245.195C353.839 245.237 353.831 245.279 353.814 245.318C353.798 245.357 353.774 245.392 353.743 245.422C351.125 248.176 348.761 251.161 346.68 254.34C348.86 253.522 351.172 253.113 353.5 253.133C353.564 253.137 353.624 253.165 353.667 253.212C353.711 253.259 353.735 253.32 353.735 253.384C353.733 253.447 353.707 253.507 353.661 253.551C353.616 253.595 353.555 253.619 353.492 253.619C350.991 253.593 348.511 254.075 346.202 255.037C344.779 257.217 343.468 259.469 342.274 261.784C343.244 261.112 344.348 260.659 345.51 260.454C346.672 260.25 347.864 260.3 349.005 260.601C349.035 260.609 349.064 260.622 349.089 260.641C349.115 260.66 349.136 260.684 349.152 260.711C349.167 260.738 349.178 260.768 349.182 260.8C349.186 260.831 349.183 260.863 349.175 260.893C349.168 260.924 349.156 260.954 349.137 260.979C349.118 261.005 349.094 261.027 349.067 261.043C349.039 261.059 349.009 261.069 348.977 261.073C348.946 261.076 348.914 261.073 348.883 261.063C347.647 260.742 346.351 260.731 345.111 261.032C343.87 261.333 342.723 261.937 341.771 262.788C337.596 271.007 335.214 280.018 334.781 289.227C334.777 289.31 334.741 289.388 334.681 289.445C334.62 289.503 334.54 289.535 334.457 289.534C334.415 289.533 334.373 289.524 334.335 289.507C334.296 289.489 334.262 289.464 334.233 289.433C334.204 289.402 334.182 289.366 334.168 289.326C334.153 289.287 334.147 289.244 334.149 289.202C334.438 282.714 335.719 276.308 337.948 270.208Z" fill="#F5F5F5"/>
<path d="M326.608 309.768C323.166 303.288 320.938 293.941 320.938 289.842C320.954 288.165 321.339 286.512 322.065 285C322.792 283.488 323.842 282.155 325.142 281.094H342.776C344.075 282.155 345.124 283.489 345.849 285.001C346.574 286.512 346.957 288.166 346.972 289.842C346.972 293.941 344.712 303.296 341.302 309.768H326.608Z" fill="#F0F0F0"/>
<path d="M296.46 183.983C296.46 183.773 296.46 183.562 296.46 183.36L297.683 182.679C297.586 182.102 297.435 181.535 297.23 180.986H295.828C295.654 180.606 295.445 180.243 295.205 179.901L295.925 178.71C295.555 178.251 295.137 177.833 294.678 177.463L293.487 178.184C293.145 177.943 292.782 177.734 292.402 177.56V176.159C291.853 175.954 291.287 175.802 290.709 175.705L290.029 176.928C289.826 176.928 289.616 176.928 289.405 176.928C289.194 176.928 288.984 176.928 288.781 176.928L288.101 175.705C287.523 175.802 286.956 175.954 286.408 176.159V177.56C286.028 177.734 285.665 177.943 285.323 178.184L284.124 177.463C283.669 177.835 283.254 178.253 282.884 178.71L283.605 179.901C283.362 180.241 283.153 180.605 282.982 180.986H281.58C281.372 181.534 281.22 182.101 281.127 182.679L282.35 183.36C282.35 183.562 282.35 183.773 282.35 183.983C282.35 184.194 282.35 184.405 282.35 184.607L281.127 185.287C281.22 185.866 281.372 186.433 281.58 186.98H282.982C283.153 187.362 283.362 187.726 283.605 188.066L282.884 189.265C283.256 189.717 283.671 190.132 284.124 190.504L285.323 189.783C285.663 190.027 286.026 190.235 286.408 190.407V191.808C286.955 192.017 287.522 192.169 288.101 192.262L288.781 191.038C288.984 191.038 289.194 191.038 289.405 191.038C289.616 191.038 289.826 191.038 290.029 191.038L290.709 192.262C291.287 192.169 291.855 192.017 292.402 191.808V190.407C292.784 190.235 293.147 190.027 293.487 189.783L294.678 190.504C295.135 190.135 295.553 189.719 295.925 189.265L295.205 188.066C295.445 187.724 295.654 187.36 295.828 186.98H297.23C297.435 186.432 297.586 185.865 297.683 185.287L296.46 184.607C296.46 184.405 296.46 184.194 296.46 183.983ZM289.405 188.779C288.457 188.779 287.529 188.497 286.741 187.97C285.952 187.444 285.338 186.695 284.975 185.818C284.612 184.942 284.517 183.978 284.702 183.048C284.887 182.118 285.344 181.263 286.014 180.593C286.685 179.922 287.539 179.465 288.469 179.28C289.4 179.095 290.364 179.19 291.24 179.553C292.116 179.916 292.865 180.531 293.392 181.319C293.919 182.108 294.2 183.035 294.2 183.983C294.2 184.616 294.075 185.242 293.832 185.826C293.589 186.41 293.233 186.94 292.784 187.386C292.335 187.831 291.803 188.184 291.217 188.423C290.632 188.662 290.005 188.783 289.373 188.779H289.405Z" fill="#F0F0F0"/>
<path d="M287.242 201.293C287.242 200.977 287.242 200.669 287.202 200.362L289.024 199.341C288.893 198.483 288.67 197.641 288.36 196.83L286.278 196.87C286.011 196.305 285.697 195.763 285.339 195.25L286.416 193.46C285.863 192.777 285.239 192.155 284.553 191.605L282.763 192.675C282.251 192.317 281.709 192.005 281.143 191.743V189.653C280.324 189.339 279.474 189.111 278.607 188.973L277.595 190.804C276.973 190.739 276.346 190.739 275.724 190.804L274.711 188.973C273.845 189.111 272.995 189.339 272.176 189.653V191.743C271.61 192.005 271.067 192.317 270.556 192.675L268.758 191.605C268.076 192.157 267.455 192.779 266.903 193.46L267.98 195.25C267.622 195.763 267.308 196.305 267.041 196.87L264.951 196.83C264.637 197.649 264.409 198.499 264.271 199.365L266.101 200.386C266.101 200.694 266.061 201.001 266.061 201.317C266.061 201.633 266.061 201.941 266.101 202.249L264.271 203.269C264.409 204.136 264.637 204.985 264.951 205.805L267.041 205.764C267.306 206.331 267.62 206.873 267.98 207.384L266.903 209.174C267.455 209.856 268.076 210.477 268.758 211.029L270.556 209.96C271.066 210.321 271.608 210.633 272.176 210.892V212.981C272.995 213.296 273.845 213.524 274.711 213.662L275.724 211.831C276.346 211.896 276.973 211.896 277.595 211.831L278.607 213.662C279.474 213.524 280.324 213.296 281.143 212.981V210.892C281.711 210.633 282.253 210.321 282.763 209.96L284.553 211.029C285.239 210.48 285.863 209.858 286.416 209.174L285.322 207.36C285.682 206.848 285.997 206.306 286.262 205.74L288.344 205.78C288.661 204.962 288.889 204.112 289.024 203.245L287.202 202.225C287.226 201.917 287.242 201.609 287.242 201.293ZM276.712 205.456C275.889 205.456 275.084 205.212 274.399 204.755C273.714 204.297 273.181 203.647 272.866 202.886C272.55 202.126 272.468 201.288 272.629 200.481C272.789 199.673 273.186 198.931 273.768 198.349C274.35 197.767 275.092 197.37 275.9 197.21C276.707 197.049 277.545 197.131 278.305 197.447C279.066 197.762 279.716 198.295 280.174 198.98C280.631 199.665 280.876 200.47 280.876 201.293C280.876 201.843 280.767 202.387 280.556 202.894C280.344 203.401 280.035 203.862 279.645 204.249C279.255 204.636 278.792 204.942 278.283 205.149C277.774 205.356 277.229 205.461 276.68 205.456H276.712Z" fill="#F0F0F0"/>
<path d="M123.25 169.185H113.708C112.892 169.185 112.085 169.345 111.332 169.658C110.578 169.97 109.894 170.428 109.318 171.005C108.741 171.582 108.284 172.267 107.973 173.02C107.662 173.774 107.502 174.582 107.503 175.397V184.931C107.503 186.577 108.157 188.156 109.32 189.321C110.483 190.486 112.061 191.142 113.708 191.144H123.25C124.896 191.142 126.474 190.486 127.637 189.321C128.801 188.156 129.454 186.577 129.454 184.931V175.397C129.455 174.582 129.296 173.774 128.984 173.02C128.673 172.267 128.216 171.582 127.64 171.005C127.063 170.428 126.379 169.97 125.626 169.658C124.873 169.345 124.065 169.185 123.25 169.185ZM118.479 187.005C118.479 187.005 113.319 181.383 113.319 178.532C113.319 177.164 113.863 175.851 114.83 174.884C115.798 173.916 117.11 173.372 118.479 173.372C119.847 173.372 121.16 173.916 122.127 174.884C123.095 175.851 123.638 177.164 123.638 178.532C123.638 181.359 118.479 186.98 118.479 186.98V187.005Z" fill="#F0F0F0"/>
<path d="M118.479 176.159C118.012 176.159 117.556 176.297 117.168 176.557C116.78 176.816 116.478 177.185 116.3 177.616C116.122 178.047 116.076 178.521 116.167 178.979C116.259 179.436 116.484 179.856 116.815 180.186C117.145 180.515 117.566 180.739 118.024 180.829C118.482 180.919 118.956 180.871 119.386 180.691C119.817 180.512 120.184 180.208 120.442 179.82C120.7 179.431 120.837 178.974 120.836 178.508C120.836 178.199 120.775 177.893 120.656 177.607C120.538 177.321 120.364 177.062 120.145 176.844C119.926 176.626 119.666 176.453 119.38 176.335C119.094 176.218 118.788 176.158 118.479 176.159Z" fill="#F0F0F0"/>
<g opacity="0.3">
<path d="M202.5 343.205C289.237 343.205 359.551 339.1 359.551 334.036C359.551 328.972 289.237 324.867 202.5 324.867C115.763 324.867 45.4491 328.972 45.4491 334.036C45.4491 339.1 115.763 343.205 202.5 343.205Z" fill="#228B22"/>
</g>
<path d="M239.679 142.228H238.869V133.537C238.867 131.863 238.202 130.258 237.019 129.074C235.836 127.89 234.233 127.223 232.559 127.219H216.562C214.672 127.216 212.86 126.465 211.524 125.128C210.187 123.792 209.436 121.98 209.434 120.091V113.4H210.244V120.107C210.246 121.782 210.912 123.388 212.096 124.572C213.281 125.756 214.887 126.423 216.562 126.425H232.559C234.448 126.427 236.259 127.179 237.594 128.515C238.929 129.852 239.679 131.664 239.679 133.553V142.228Z" fill="black"/>
<path d="M245.43 142.398H234.9C233.879 142.398 232.899 142.803 232.177 143.524C231.454 144.246 231.047 145.224 231.044 146.246V156.775C231.047 157.797 231.454 158.775 232.177 159.497C232.899 160.218 233.879 160.623 234.9 160.623H245.43C246.451 160.623 247.431 160.218 248.154 159.497C248.876 158.775 249.284 157.797 249.286 156.775V146.246C249.284 145.224 248.876 144.246 248.154 143.524C247.431 142.803 246.451 142.398 245.43 142.398Z" fill="#FFA500"/>
<g opacity="0.4">
<path d="M245.43 142.398H234.9C233.879 142.398 232.899 142.803 232.177 143.524C231.454 144.246 231.047 145.224 231.044 146.246V156.775C231.047 157.797 231.454 158.775 232.177 159.497C232.899 160.218 233.879 160.623 234.9 160.623H245.43C246.451 160.623 247.431 160.218 248.154 159.497C248.876 158.775 249.284 157.797 249.286 156.775V146.246C249.284 145.224 248.876 144.246 248.154 143.524C247.431 142.803 246.451 142.398 245.43 142.398Z" fill="white"/>
</g>
<path d="M240.084 144.115C238.651 144.114 237.25 144.537 236.058 145.332C234.866 146.127 233.936 147.258 233.387 148.582C232.838 149.905 232.694 151.362 232.973 152.767C233.252 154.173 233.942 155.464 234.955 156.477C235.969 157.49 237.26 158.18 238.665 158.459C240.071 158.738 241.527 158.594 242.851 158.045C244.174 157.496 245.305 156.567 246.1 155.375C246.895 154.183 247.319 152.781 247.317 151.349C247.313 149.431 246.55 147.594 245.194 146.239C243.838 144.883 242.001 144.119 240.084 144.115ZM238.934 144.925C238.23 145.626 237.659 146.45 237.249 147.355H234.957C235.94 146.08 237.364 145.216 238.95 144.933L238.934 144.925ZM234.463 148.036H236.941C236.583 148.964 236.367 149.942 236.301 150.935V151.106H233.588C233.625 150.029 233.925 148.977 234.463 148.044V148.036ZM234.608 154.88C234.015 153.962 233.661 152.909 233.58 151.818H236.317C236.422 152.876 236.696 153.909 237.127 154.88H234.608ZM235.143 155.593H237.468C237.911 156.43 238.504 157.18 239.217 157.804C237.634 157.597 236.183 156.812 235.143 155.601V155.593ZM239.728 157.302C239.161 156.813 238.677 156.236 238.294 155.593H239.76L239.728 157.302ZM239.728 154.872H237.905C237.442 153.909 237.149 152.873 237.038 151.81H239.76L239.728 154.872ZM239.728 151.097H237.014C237.061 150.041 237.297 149.001 237.711 148.028H239.76L239.728 151.097ZM239.728 147.315H238.043C238.46 146.496 239.032 145.767 239.728 145.168V147.315ZM246.604 151.097H243.883V150.927C243.821 149.933 243.605 148.955 243.243 148.028H245.722C246.27 148.966 246.574 150.027 246.604 151.114V151.097ZM245.211 147.315H242.927C242.511 146.411 241.938 145.588 241.234 144.885C242.818 145.178 244.236 146.05 245.211 147.331V147.315ZM240.44 145.176C241.138 145.771 241.711 146.497 242.125 147.315H240.44V145.176ZM240.44 148.028H242.457C242.873 149.001 243.111 150.04 243.162 151.097H240.44V148.028ZM240.44 151.81H243.13C243.023 152.874 242.729 153.91 242.263 154.872H240.44V151.81ZM240.44 157.294V155.601H241.874C241.496 156.247 241.011 156.825 240.44 157.31V157.294ZM240.951 157.796C241.664 157.172 242.257 156.422 242.7 155.585H245.025C243.989 156.805 242.537 157.599 240.951 157.812V157.796ZM245.56 154.872H243.049C243.48 153.901 243.754 152.867 243.859 151.81H246.596C246.518 152.908 246.161 153.967 245.56 154.888V154.872Z" fill="white"/>
<path d="M272.362 128.79H271.552V120.099C271.552 118.425 270.888 116.82 269.704 115.637C268.521 114.454 266.916 113.789 265.243 113.789H227.067V112.979H265.243C267.13 112.981 268.94 113.732 270.275 115.067C271.61 116.401 272.36 118.211 272.362 120.099V128.79Z" fill="black"/>
<path d="M274.979 122.488H264.449C263.428 122.488 262.448 122.893 261.725 123.615C261.002 124.336 260.595 125.315 260.593 126.336V136.866C260.595 137.887 261.002 138.865 261.725 139.587C262.448 140.308 263.428 140.713 264.449 140.713H274.979C276 140.713 276.979 140.308 277.702 139.587C278.425 138.865 278.832 137.887 278.834 136.866V126.36C278.836 125.852 278.738 125.349 278.546 124.88C278.353 124.41 278.069 123.983 277.711 123.623C277.353 123.263 276.927 122.978 276.458 122.783C275.989 122.588 275.486 122.488 274.979 122.488Z" fill="#FFA500"/>
<g opacity="0.4">
<path d="M274.979 122.488H264.449C263.428 122.488 262.448 122.893 261.725 123.615C261.002 124.336 260.595 125.315 260.593 126.336V136.866C260.595 137.887 261.002 138.865 261.725 139.587C262.448 140.308 263.428 140.713 264.449 140.713H274.979C276 140.713 276.979 140.308 277.702 139.587C278.425 138.865 278.832 137.887 278.834 136.866V126.36C278.836 125.852 278.738 125.349 278.546 124.88C278.353 124.41 278.069 123.983 277.711 123.623C277.353 123.263 276.927 122.978 276.458 122.783C275.989 122.588 275.486 122.488 274.979 122.488Z" fill="white"/>
</g>
<path opacity="0.9" d="M270.945 126.571C270.351 125.976 269.6 125.564 268.78 125.381C267.96 125.198 267.105 125.252 266.314 125.537C265.524 125.823 264.831 126.328 264.318 126.992C263.804 127.657 263.49 128.455 263.413 129.291C263.336 130.128 263.499 130.969 263.882 131.717C264.266 132.464 264.855 133.087 265.58 133.512C266.305 133.937 267.136 134.147 267.975 134.117C268.815 134.087 269.629 133.818 270.321 133.342C270.354 133.545 270.451 133.732 270.597 133.877L273.343 136.623C273.435 136.715 273.544 136.788 273.664 136.837C273.784 136.887 273.913 136.913 274.043 136.913C274.173 136.913 274.302 136.887 274.422 136.837C274.543 136.788 274.652 136.715 274.744 136.623C274.836 136.531 274.909 136.421 274.959 136.301C275.008 136.181 275.034 136.052 275.034 135.922C275.034 135.792 275.008 135.663 274.959 135.543C274.909 135.423 274.836 135.313 274.744 135.221L271.998 132.475C271.851 132.328 271.661 132.231 271.455 132.2C272.041 131.35 272.31 130.321 272.217 129.293C272.124 128.265 271.674 127.302 270.945 126.571ZM270.005 131.884C269.572 132.319 269.019 132.615 268.417 132.735C267.815 132.856 267.191 132.795 266.624 132.56C266.056 132.325 265.571 131.928 265.23 131.417C264.889 130.907 264.707 130.307 264.707 129.693C264.707 129.079 264.889 128.479 265.23 127.969C265.571 127.459 266.056 127.061 266.624 126.826C267.191 126.592 267.815 126.531 268.417 126.651C269.019 126.771 269.572 127.067 270.005 127.502C270.294 127.79 270.522 128.131 270.678 128.507C270.834 128.883 270.915 129.286 270.915 129.693C270.915 130.1 270.834 130.503 270.678 130.879C270.522 131.255 270.294 131.597 270.005 131.884Z" fill="white"/>
<path d="M275.019 99.1764H226.16V99.9864H275.019V99.1764Z" fill="black"/>
<path d="M282.747 85.2768H272.257C271.751 85.2768 271.25 85.3766 270.783 85.5704C270.316 85.7643 269.891 86.0484 269.534 86.4066C269.176 86.7647 268.893 87.1898 268.7 87.6575C268.507 88.1253 268.409 88.6265 268.41 89.1324V99.63C268.409 100.136 268.507 100.637 268.7 101.105C268.893 101.573 269.176 101.998 269.534 102.356C269.891 102.714 270.316 102.998 270.783 103.192C271.25 103.386 271.751 103.486 272.257 103.486H282.747C283.769 103.486 284.75 103.079 285.473 102.356C286.196 101.633 286.602 100.653 286.602 99.63V89.1C286.594 88.0831 286.184 87.1107 285.462 86.3946C284.739 85.6785 283.764 85.2768 282.747 85.2768Z" fill="#FFA500"/>
<g opacity="0.4">
<path d="M282.747 85.2768H272.257C271.751 85.2768 271.25 85.3766 270.783 85.5704C270.316 85.7643 269.891 86.0484 269.534 86.4066C269.176 86.7647 268.893 87.1898 268.7 87.6575C268.507 88.1253 268.409 88.6265 268.41 89.1324V99.63C268.409 100.136 268.507 100.637 268.7 101.105C268.893 101.573 269.176 101.998 269.534 102.356C269.891 102.714 270.316 102.998 270.783 103.192C271.25 103.386 271.751 103.486 272.257 103.486H282.747C283.769 103.486 284.75 103.079 285.473 102.356C286.196 101.633 286.602 100.653 286.602 99.63V89.1C286.594 88.0831 286.184 87.1107 285.462 86.3946C284.739 85.6785 283.764 85.2768 282.747 85.2768Z" fill="white"/>
</g>
<g opacity="0.5">
<path d="M274.946 99.5814C274.946 99.8521 274.866 100.117 274.716 100.342C274.565 100.567 274.352 100.742 274.101 100.846C273.851 100.95 273.576 100.977 273.31 100.924C273.045 100.871 272.801 100.741 272.61 100.549C272.418 100.358 272.288 100.114 272.235 99.8485C272.182 99.5829 272.209 99.3077 272.313 99.0575C272.416 98.8074 272.592 98.5936 272.817 98.4432C273.042 98.2928 273.307 98.2125 273.578 98.2125C273.758 98.2114 273.936 98.2461 274.103 98.3145C274.269 98.3829 274.421 98.4837 274.548 98.611C274.675 98.7384 274.776 98.8897 274.844 99.0563C274.913 99.2228 274.948 99.4013 274.946 99.5814Z" fill="white"/>
<path d="M280.26 99.5814C280.26 99.8521 280.18 100.117 280.029 100.342C279.879 100.567 279.665 100.742 279.415 100.846C279.165 100.95 278.89 100.977 278.624 100.924C278.359 100.871 278.115 100.741 277.923 100.549C277.732 100.358 277.601 100.114 277.549 99.8485C277.496 99.5829 277.523 99.3077 277.626 99.0575C277.73 98.8074 277.905 98.5936 278.131 98.4432C278.356 98.2928 278.62 98.2125 278.891 98.2125C279.071 98.2114 279.25 98.2461 279.416 98.3145C279.583 98.3829 279.734 98.4837 279.861 98.611C279.989 98.7384 280.09 98.8897 280.158 99.0563C280.226 99.2228 280.261 99.4013 280.26 99.5814Z" fill="white"/>
</g>
<path d="M280.033 97.5159H272.079C272.001 97.5145 271.926 97.4888 271.863 97.4423C271.801 97.3958 271.754 97.3309 271.731 97.2567L270.062 91.7244C270.045 91.6698 270.041 91.6119 270.051 91.5555C270.061 91.4991 270.084 91.4459 270.119 91.4004C270.153 91.3551 270.197 91.3184 270.247 91.2931C270.298 91.2678 270.354 91.2546 270.41 91.2546H281.702C281.759 91.2546 281.816 91.2677 281.868 91.293C281.92 91.3182 281.966 91.355 282.001 91.4004C282.034 91.4467 282.057 91.4999 282.067 91.556C282.076 91.612 282.073 91.6696 282.058 91.7244L280.381 97.2567C280.359 97.3315 280.313 97.3971 280.25 97.4438C280.187 97.4905 280.111 97.5158 280.033 97.5159ZM272.354 96.7869H279.766L281.216 91.9836H270.896L272.354 96.7869Z" fill="white"/>
<path d="M281.702 91.9836H281.605C281.558 91.9706 281.515 91.9484 281.477 91.9185C281.439 91.8886 281.408 91.8514 281.384 91.8092C281.361 91.767 281.346 91.7206 281.341 91.6727C281.336 91.6248 281.34 91.5763 281.354 91.53L281.993 89.3025C282.078 89.0109 282.254 88.7545 282.497 88.5719C282.739 88.3893 283.034 88.2904 283.338 88.29H284.602C284.698 88.29 284.791 88.3284 284.859 88.3968C284.928 88.4651 284.966 88.5578 284.966 88.6545C284.966 88.7512 284.928 88.8439 284.859 88.9122C284.791 88.9806 284.698 89.019 284.602 89.019H283.338C283.193 89.0203 283.053 89.0683 282.937 89.1559C282.822 89.2435 282.738 89.3659 282.698 89.505L282.058 91.7325C282.033 91.8065 281.985 91.8706 281.921 91.9156C281.857 91.9607 281.78 91.9845 281.702 91.9836Z" fill="white"/>
<path d="M240.57 88.3548H224.678V87.5448H240.57C242.244 87.5448 243.848 86.88 245.032 85.6967C246.215 84.5133 246.88 82.9084 246.88 81.2349V72.5436H247.69V81.2349C247.688 83.1226 246.937 84.9323 245.602 86.2671C244.267 87.6018 242.458 88.3527 240.57 88.3548Z" fill="black"/>
<path d="M252.89 58.6683H241.745C239.776 58.6683 238.181 60.2639 238.181 62.2323V73.3779C238.181 75.3462 239.776 76.9419 241.745 76.9419H252.89C254.858 76.9419 256.454 75.3462 256.454 73.3779V62.2323C256.454 60.2639 254.858 58.6683 252.89 58.6683Z" fill="#FFA500"/>
<g opacity="0.4">
<path d="M252.89 58.6683H241.745C239.776 58.6683 238.181 60.2639 238.181 62.2323V73.3779C238.181 75.3462 239.776 76.9419 241.745 76.9419H252.89C254.858 76.9419 256.454 75.3462 256.454 73.3779V62.2323C256.454 60.2639 254.858 58.6683 252.89 58.6683Z" fill="white"/>
</g>
<path d="M254.243 69.7167C254.243 69.9111 254.243 70.5996 254.202 70.794H247.957V67.8132H248.808L247.05 66.0474L245.284 67.8132H246.135V70.794H240.27C240.27 70.6968 240.27 70.0974 240.27 69.984C240.271 69.2048 240.561 68.4537 241.086 67.8772C241.61 67.3007 242.33 66.94 243.105 66.8655V66.744C243.098 65.8631 243.408 65.009 243.978 64.3371C244.547 63.6652 245.339 63.22 246.209 63.0827C247.079 62.9454 247.97 63.1249 248.719 63.5887C249.468 64.0526 250.025 64.7698 250.29 65.61C250.51 65.6147 250.729 65.6364 250.946 65.6748C251.884 65.8522 252.729 66.3549 253.332 67.0944C253.935 67.8339 254.258 68.7626 254.243 69.7167Z" fill="white"/>
<path d="M203.836 67.6026H203.026V84.2481H203.836V67.6026Z" fill="black"/>
<path d="M208.68 51.7266H198.191C197.168 51.7266 196.188 52.1328 195.464 52.8559C194.741 53.579 194.335 54.5596 194.335 55.5822V66.0717C194.335 67.0943 194.741 68.075 195.464 68.798C196.188 69.5211 197.168 69.9273 198.191 69.9273H208.68C209.186 69.9273 209.687 69.8275 210.155 69.6337C210.622 69.4398 211.046 69.1557 211.404 68.7975C211.761 68.4394 212.044 68.0143 212.237 67.5466C212.43 67.0788 212.529 66.5776 212.528 66.0717V55.5822C212.529 55.0763 212.43 54.5751 212.237 54.1073C212.044 53.6396 211.761 53.2145 211.404 52.8564C211.046 52.4982 210.622 52.2141 210.155 52.0203C209.687 51.8264 209.186 51.7266 208.68 51.7266Z" fill="#FFA500"/>
<g opacity="0.4">
<path d="M208.68 51.7266H198.191C197.168 51.7266 196.188 52.1328 195.464 52.8559C194.741 53.579 194.335 54.5596 194.335 55.5822V66.0717C194.335 67.0943 194.741 68.075 195.464 68.798C196.188 69.5211 197.168 69.9273 198.191 69.9273H208.68C209.186 69.9273 209.687 69.8275 210.155 69.6337C210.622 69.4398 211.046 69.1557 211.404 68.7975C211.761 68.4394 212.044 68.0143 212.237 67.5466C212.43 67.0788 212.529 66.5776 212.528 66.0717V55.5822C212.529 55.0763 212.43 54.5751 212.237 54.1073C212.044 53.6396 211.761 53.2145 211.404 52.8564C211.046 52.4982 210.622 52.2141 210.155 52.0203C209.687 51.8264 209.186 51.7266 208.68 51.7266Z" fill="white"/>
</g>
<path d="M205.116 62.0217C205.116 61.9002 205.116 61.7787 205.116 61.6653L205.853 61.3737C205.847 61.0378 205.804 60.7037 205.724 60.3774L204.914 60.2883C204.845 60.0618 204.756 59.8422 204.646 59.6322L205.141 59.0085C204.964 58.7197 204.761 58.4484 204.533 58.1985L203.804 58.5144C203.628 58.3528 203.438 58.2065 203.237 58.077L203.35 57.267C203.059 57.1016 202.749 56.9711 202.427 56.8782L201.957 57.5181L201.69 57.51H201.342L201.042 56.7648C200.709 56.7755 200.378 56.8189 200.054 56.8944L199.965 57.7044C199.735 57.7744 199.512 57.8666 199.3 57.9798L198.677 57.4776C198.386 57.6539 198.114 57.8602 197.867 58.0932L198.183 58.8222C198.024 58.9991 197.881 59.1888 197.753 59.3892L196.943 59.2677C196.787 59.5624 196.659 59.8717 196.563 60.1911L197.203 60.669C197.203 60.7824 197.154 60.8958 197.138 61.0173C197.13 61.136 197.13 61.255 197.138 61.3737L196.393 61.6653C196.399 62.0012 196.442 62.3353 196.522 62.6616L197.332 62.7507C197.404 62.9759 197.494 63.1952 197.599 63.4068L197.105 64.0305C197.281 64.3193 197.485 64.5906 197.713 64.8405L198.45 64.5246C198.622 64.688 198.809 64.8344 199.009 64.962L198.895 65.772C199.188 65.9333 199.498 66.061 199.819 66.1527L200.289 65.5128L200.645 65.5776H201.001L201.293 66.3147C201.626 66.3085 201.958 66.2651 202.281 66.1851L202.37 65.3751C202.6 65.3051 202.823 65.2129 203.035 65.0997L203.658 65.5938C203.951 65.4232 204.223 65.2194 204.468 64.9863L204.152 64.2573C204.311 64.0809 204.455 63.8912 204.582 63.6903L205.392 63.8118C205.548 63.5171 205.676 63.2078 205.772 62.8884L205.132 62.4105C205.076 62.2566 205.1 62.1351 205.116 62.0217ZM200.88 63.0666C200.559 63.0307 200.256 62.8996 200.01 62.6903C199.764 62.4809 199.586 62.2028 199.5 61.8916C199.413 61.5804 199.421 61.2505 199.523 60.944C199.625 60.6376 199.817 60.3687 200.073 60.1719C200.329 59.9751 200.638 59.8594 200.961 59.8397C201.283 59.8199 201.604 59.897 201.883 60.061C202.161 60.225 202.384 60.4685 202.523 60.7601C202.662 61.0518 202.71 61.3783 202.662 61.6977C202.6 62.112 202.379 62.4861 202.047 62.7413C201.715 62.9966 201.296 63.1132 200.88 63.0666Z" fill="#FFA500"/>
<path d="M205.116 62.0217C205.116 61.9002 205.116 61.7787 205.116 61.6653L205.853 61.3737C205.847 61.0378 205.804 60.7037 205.724 60.3774L204.914 60.2883C204.845 60.0618 204.756 59.8422 204.646 59.6322L205.141 59.0085C204.964 58.7197 204.761 58.4484 204.533 58.1985L203.804 58.5144C203.628 58.3528 203.438 58.2065 203.237 58.077L203.35 57.267C203.059 57.1016 202.749 56.9711 202.427 56.8782L201.957 57.5181L201.69 57.51H201.342L201.042 56.7648C200.709 56.7755 200.378 56.8189 200.054 56.8944L199.965 57.7044C199.735 57.7744 199.512 57.8666 199.3 57.9798L198.677 57.4776C198.386 57.6539 198.114 57.8602 197.867 58.0932L198.183 58.8222C198.024 58.9991 197.881 59.1888 197.753 59.3892L196.943 59.2677C196.787 59.5624 196.659 59.8717 196.563 60.1911L197.203 60.669C197.203 60.7824 197.154 60.8958 197.138 61.0173C197.13 61.136 197.13 61.255 197.138 61.3737L196.393 61.6653C196.399 62.0012 196.442 62.3353 196.522 62.6616L197.332 62.7507C197.404 62.9759 197.494 63.1952 197.599 63.4068L197.105 64.0305C197.281 64.3193 197.485 64.5906 197.713 64.8405L198.45 64.5246C198.622 64.688 198.809 64.8344 199.009 64.962L198.895 65.772C199.188 65.9333 199.498 66.061 199.819 66.1527L200.289 65.5128L200.645 65.5776H201.001L201.293 66.3147C201.626 66.3085 201.958 66.2651 202.281 66.1851L202.37 65.3751C202.6 65.3051 202.823 65.2129 203.035 65.0997L203.658 65.5938C203.951 65.4232 204.223 65.2194 204.468 64.9863L204.152 64.2573C204.311 64.0809 204.455 63.8912 204.582 63.6903L205.392 63.8118C205.548 63.5171 205.676 63.2078 205.772 62.8884L205.132 62.4105C205.076 62.2566 205.1 62.1351 205.116 62.0217ZM200.88 63.0666C200.559 63.0307 200.256 62.8996 200.01 62.6903C199.764 62.4809 199.586 62.2028 199.5 61.8916C199.413 61.5804 199.421 61.2505 199.523 60.944C199.625 60.6376 199.817 60.3687 200.073 60.1719C200.329 59.9751 200.638 59.8594 200.961 59.8397C201.283 59.8199 201.604 59.897 201.883 60.061C202.161 60.225 202.384 60.4685 202.523 60.7601C202.662 61.0518 202.71 61.3783 202.662 61.6977C202.6 62.112 202.379 62.4861 202.047 62.7413C201.715 62.9966 201.296 63.1132 200.88 63.0666Z" fill="white"/>
<g opacity="0.5">
<path d="M208.437 59.5512C207.973 59.5527 207.522 59.3978 207.157 59.1115C206.791 58.8251 206.533 58.4241 206.423 57.9729C206.314 57.5218 206.36 57.047 206.553 56.625C206.746 56.203 207.076 55.8585 207.49 55.647V56.9511C207.492 57.2037 207.594 57.4451 207.773 57.6234C207.949 57.7996 208.188 57.8987 208.437 57.8988C208.689 57.8988 208.93 57.799 209.107 57.6212C209.285 57.4435 209.385 57.2024 209.385 56.9511V55.647C209.798 55.8585 210.128 56.203 210.322 56.625C210.515 57.047 210.561 57.5218 210.451 57.9729C210.342 58.4241 210.084 58.8251 209.718 59.1115C209.353 59.3978 208.902 59.5527 208.437 59.5512Z" fill="white"/>
<path d="M207.498 64.7109V58.9761C207.497 58.852 207.52 58.729 207.567 58.6141C207.614 58.4991 207.683 58.3946 207.77 58.3065C207.857 58.2184 207.961 58.1484 208.076 58.1007C208.19 58.053 208.313 58.0284 208.437 58.0284C208.561 58.0284 208.684 58.053 208.799 58.1007C208.913 58.1484 209.017 58.2184 209.105 58.3065C209.192 58.3946 209.261 58.4991 209.308 58.6141C209.354 58.729 209.378 58.852 209.377 58.9761V64.7109C209.377 64.8343 209.353 64.9565 209.305 65.0705C209.258 65.1845 209.189 65.2881 209.102 65.3753C209.014 65.4626 208.911 65.5318 208.797 65.579C208.683 65.6262 208.561 65.6505 208.437 65.6505C208.314 65.6505 208.192 65.6262 208.078 65.579C207.964 65.5318 207.86 65.4626 207.773 65.3753C207.686 65.2881 207.616 65.1845 207.569 65.0705C207.522 64.9565 207.498 64.8343 207.498 64.7109Z" fill="white"/>
</g>
<path d="M168.31 142.228H167.5V133.537C167.502 131.647 168.254 129.835 169.59 128.499C170.926 127.162 172.738 126.411 174.628 126.409H190.617C192.292 126.406 193.898 125.74 195.083 124.556C196.267 123.371 196.933 121.766 196.935 120.091V113.4H197.745V120.107C197.743 121.997 196.992 123.808 195.655 125.145C194.319 126.481 192.507 127.233 190.617 127.235H174.628C172.953 127.237 171.347 127.903 170.163 129.088C168.978 130.272 168.312 131.878 168.31 133.553V142.228Z" fill="black"/>
<path d="M172.749 141.207H162.219C161.196 141.207 160.216 141.614 159.492 142.337C158.769 143.06 158.363 144.04 158.363 145.063V155.52C158.363 156.026 158.463 156.527 158.657 156.994C158.851 157.462 159.135 157.886 159.493 158.243C159.851 158.601 160.276 158.884 160.744 159.077C161.212 159.27 161.713 159.369 162.219 159.367H172.749C173.766 159.363 174.741 158.956 175.459 158.235C176.177 157.514 176.58 156.538 176.58 155.52V145.063C176.58 144.045 176.177 143.068 175.459 142.345C174.742 141.623 173.767 141.214 172.749 141.207Z" fill="#FFA500"/>
<g opacity="0.4">
<path d="M172.749 141.207H162.219C161.196 141.207 160.216 141.614 159.492 142.337C158.769 143.06 158.363 144.04 158.363 145.063V155.52C158.363 156.026 158.463 156.527 158.657 156.994C158.851 157.462 159.135 157.886 159.493 158.243C159.851 158.601 160.276 158.884 160.744 159.077C161.212 159.27 161.713 159.369 162.219 159.367H172.749C173.766 159.363 174.741 158.956 175.459 158.235C176.177 157.514 176.58 156.538 176.58 155.52V145.063C176.58 144.045 176.177 143.068 175.459 142.345C174.742 141.623 173.767 141.214 172.749 141.207Z" fill="white"/>
</g>
<path d="M174.029 154.661C174.029 154.894 173.96 155.121 173.831 155.314C173.702 155.507 173.518 155.658 173.304 155.747C173.089 155.835 172.853 155.859 172.625 155.813C172.397 155.768 172.188 155.656 172.024 155.492C171.859 155.328 171.747 155.118 171.702 154.891C171.657 154.663 171.68 154.427 171.769 154.212C171.858 153.997 172.008 153.814 172.202 153.685C172.395 153.556 172.622 153.487 172.854 153.487C173.166 153.487 173.464 153.611 173.685 153.831C173.905 154.051 174.029 154.35 174.029 154.661Z" fill="white"/>
<path d="M168.828 154.661C168.828 154.894 168.759 155.121 168.63 155.314C168.501 155.507 168.318 155.658 168.103 155.747C167.889 155.835 167.653 155.859 167.425 155.813C167.197 155.768 166.988 155.656 166.823 155.492C166.659 155.328 166.547 155.118 166.502 154.891C166.457 154.663 166.48 154.427 166.569 154.212C166.658 153.997 166.808 153.814 167.001 153.685C167.194 153.556 167.422 153.487 167.654 153.487C167.965 153.487 168.264 153.611 168.484 153.831C168.705 154.051 168.828 154.35 168.828 154.661Z" fill="white"/>
<path d="M163.62 154.661C163.622 154.896 163.554 155.125 163.425 155.321C163.296 155.516 163.112 155.669 162.896 155.76C162.68 155.85 162.442 155.875 162.212 155.83C161.982 155.786 161.77 155.674 161.604 155.509C161.438 155.344 161.324 155.133 161.278 154.903C161.232 154.674 161.255 154.435 161.344 154.219C161.433 154.002 161.585 153.817 161.78 153.687C161.974 153.556 162.203 153.487 162.437 153.487C162.592 153.486 162.746 153.515 162.889 153.574C163.033 153.633 163.163 153.719 163.273 153.828C163.383 153.937 163.47 154.067 163.53 154.21C163.589 154.353 163.62 154.506 163.62 154.661Z" fill="white"/>
<path d="M173.121 157.01H162.13C161.524 157.01 160.943 156.77 160.514 156.341C160.086 155.913 159.845 155.332 159.845 154.726V154.597C159.845 153.991 160.086 153.41 160.514 152.981C160.943 152.553 161.524 152.312 162.13 152.312H173.121C173.727 152.312 174.308 152.553 174.737 152.981C175.165 153.41 175.406 153.991 175.406 154.597V154.71C175.408 155.011 175.35 155.31 175.236 155.589C175.123 155.868 174.955 156.122 174.742 156.336C174.53 156.549 174.277 156.719 173.999 156.835C173.721 156.951 173.423 157.01 173.121 157.01ZM162.13 153.041C161.717 153.041 161.322 153.205 161.03 153.497C160.738 153.789 160.574 154.184 160.574 154.597V154.71C160.574 155.122 160.738 155.518 161.03 155.81C161.322 156.101 161.717 156.265 162.13 156.265H173.121C173.534 156.265 173.929 156.101 174.221 155.81C174.513 155.518 174.677 155.122 174.677 154.71V154.58C174.677 154.168 174.513 153.772 174.221 153.481C173.929 153.189 173.534 153.025 173.121 153.025L162.13 153.041Z" fill="white"/>
<path d="M173.016 153.017C172.823 153.017 172.637 152.94 172.501 152.804C172.364 152.667 172.287 152.481 172.287 152.288V149.98L167.67 145.16L165.021 146.027C164.839 146.081 164.643 146.062 164.475 145.974C164.307 145.886 164.179 145.736 164.12 145.555C164.061 145.375 164.075 145.178 164.158 145.007C164.242 144.837 164.389 144.706 164.568 144.642L167.646 143.629C167.776 143.585 167.916 143.579 168.05 143.612C168.183 143.645 168.304 143.716 168.399 143.816L173.575 149.178C173.704 149.313 173.777 149.493 173.777 149.68V152.28C173.779 152.379 173.76 152.478 173.721 152.569C173.683 152.661 173.627 152.744 173.556 152.813C173.484 152.882 173.4 152.935 173.307 152.97C173.214 153.006 173.115 153.022 173.016 153.017Z" fill="white"/>
<path d="M164.56 147.517C164.463 147.517 164.37 147.479 164.302 147.41C164.234 147.342 164.195 147.249 164.195 147.153V145.338C164.195 145.242 164.234 145.149 164.302 145.081C164.37 145.012 164.463 144.974 164.56 144.974C164.656 144.974 164.749 145.012 164.817 145.081C164.886 145.149 164.924 145.242 164.924 145.338V147.153C164.924 147.249 164.886 147.342 164.817 147.41C164.749 147.479 164.656 147.517 164.56 147.517Z" fill="white"/>
<path d="M163.993 148.886C163.945 148.887 163.897 148.878 163.852 148.86C163.808 148.842 163.767 148.815 163.733 148.781C163.518 148.566 163.396 148.275 163.393 147.971C163.418 147.677 163.552 147.403 163.768 147.204C163.985 147.004 164.269 146.894 164.564 146.894C164.858 146.894 165.142 147.004 165.359 147.204C165.576 147.403 165.71 147.677 165.734 147.971C165.736 148.27 165.626 148.559 165.426 148.781C165.394 148.816 165.355 148.845 165.311 148.866C165.267 148.886 165.22 148.898 165.172 148.9C165.075 148.905 164.98 148.871 164.908 148.805C164.836 148.74 164.793 148.648 164.788 148.551C164.784 148.454 164.818 148.359 164.884 148.287C164.923 148.247 164.954 148.201 164.975 148.149C164.996 148.098 165.006 148.043 165.005 147.987C165.003 147.87 164.955 147.759 164.872 147.677C164.788 147.595 164.676 147.55 164.56 147.55C164.444 147.55 164.332 147.596 164.25 147.678C164.168 147.76 164.122 147.871 164.122 147.987C164.123 148.105 164.17 148.218 164.252 148.303C164.319 148.371 164.356 148.463 164.356 148.558C164.356 148.653 164.319 148.745 164.252 148.813C164.178 148.87 164.085 148.897 163.993 148.886Z" fill="white"/>
<path d="M168.116 144.358C168.117 144.416 168.101 144.473 168.07 144.522C168.039 144.571 167.994 144.61 167.941 144.633C167.888 144.657 167.829 144.664 167.772 144.653C167.715 144.643 167.662 144.616 167.621 144.575C167.579 144.535 167.551 144.483 167.539 144.426C167.527 144.369 167.532 144.31 167.554 144.257C167.576 144.203 167.613 144.157 167.661 144.124C167.709 144.092 167.766 144.075 167.824 144.075C167.9 144.075 167.973 144.104 168.027 144.157C168.082 144.21 168.113 144.282 168.116 144.358Z" fill="#FFA500"/>
<path d="M173.251 149.72C173.251 149.778 173.234 149.834 173.202 149.882C173.17 149.93 173.124 149.968 173.071 149.99C173.018 150.012 172.959 150.018 172.902 150.006C172.846 149.995 172.794 149.967 172.753 149.927C172.712 149.886 172.685 149.834 172.673 149.777C172.662 149.721 172.668 149.662 172.69 149.609C172.712 149.556 172.749 149.51 172.797 149.478C172.845 149.446 172.902 149.429 172.959 149.429C172.998 149.429 173.036 149.436 173.071 149.451C173.106 149.466 173.138 149.487 173.166 149.514C173.193 149.541 173.214 149.573 173.229 149.609C173.243 149.644 173.251 149.682 173.251 149.72Z" fill="#FFA500"/>
<path opacity="0.4" d="M165.669 149.696H163.458V151.907H165.669V149.696Z" fill="white"/>
<path d="M174.96 88.3548H159.043C157.154 88.3548 155.343 87.6049 154.006 86.2699C152.669 84.9349 151.918 83.124 151.915 81.2349V72.5436H152.725V81.2349C152.728 82.9091 153.394 84.5141 154.579 85.6972C155.763 86.8803 157.369 87.5448 159.043 87.5448H174.96V88.3548Z" fill="black"/>
<path d="M159.084 57.834H148.603C146.473 57.834 144.747 59.5602 144.747 61.6896V72.171C144.747 74.3004 146.473 76.0266 148.603 76.0266H159.084C161.213 76.0266 162.94 74.3004 162.94 72.171V61.6896C162.94 59.5602 161.213 57.834 159.084 57.834Z" fill="#FFA500"/>
<path opacity="0.4" d="M159.084 57.834H148.603C146.473 57.834 144.747 59.5602 144.747 61.6896V72.171C144.747 74.3004 146.473 76.0266 148.603 76.0266H159.084C161.213 76.0266 162.94 74.3004 162.94 72.171V61.6896C162.94 59.5602 161.213 57.834 159.084 57.834Z" fill="white"/>
<path d="M153.843 61.56C155.463 61.56 156.273 62.8398 156.273 64.4274C156.273 66.015 155.423 67.2948 153.843 67.2948C152.264 67.2948 151.413 66.0069 151.413 64.4274C151.413 62.8479 152.28 61.56 153.843 61.56Z" fill="white"/>
<path d="M160.177 72.3087H147.509C147.409 72.3068 147.313 72.2662 147.242 72.1953L148.052 69.9759C148.307 69.2794 148.771 68.6783 149.379 68.2538C149.988 67.8293 150.712 67.602 151.454 67.6026H156.233C156.975 67.6008 157.7 67.8277 158.308 68.2523C158.917 68.677 159.38 69.2788 159.635 69.9759L160.445 72.1953C160.374 72.2662 160.278 72.3068 160.177 72.3087Z" fill="white"/>
<path d="M138.17 128.79H137.36V120.099C137.362 118.21 138.114 116.399 139.45 115.064C140.787 113.729 142.599 112.979 144.488 112.979H182.655V113.789H144.488C142.814 113.789 141.208 114.453 140.023 115.636C138.838 116.82 138.172 118.424 138.17 120.099V128.79Z" fill="black"/>
<path d="M143.321 122.367H132.84C130.711 122.367 128.984 124.093 128.984 126.222V136.704C128.984 138.833 130.711 140.559 132.84 140.559H143.321C145.451 140.559 147.177 138.833 147.177 136.704V126.222C147.177 124.093 145.451 122.367 143.321 122.367Z" fill="#FFA500"/>
<path opacity="0.4" d="M143.321 122.367H132.84C130.711 122.367 128.984 124.093 128.984 126.222V136.704C128.984 138.833 130.711 140.559 132.84 140.559H143.321C145.451 140.559 147.177 138.833 147.177 136.704V126.222C147.177 124.093 145.451 122.367 143.321 122.367Z" fill="white"/>
<path opacity="0.6" d="M134.339 133.124H132.079V137.473H134.339V133.124Z" fill="white"/>
<path opacity="0.6" d="M140.745 131.657H138.486V137.473H140.745V131.657Z" fill="white"/>
<path d="M137.425 130.191H135.165V137.473H137.425V130.191Z" fill="white"/>
<path d="M143.961 128.725H141.701V137.473H143.961V128.725Z" fill="white"/>
<path d="M185.709 99.1764H136.849V99.9864H185.709V99.1764Z" fill="black"/>
<path d="M138.413 85.05H127.923C126.901 85.05 125.92 85.4562 125.197 86.1793C124.474 86.9023 124.068 87.883 124.068 88.9056V99.3951C124.068 100.418 124.474 101.398 125.197 102.121C125.92 102.844 126.901 103.251 127.923 103.251H138.413C138.919 103.251 139.42 103.151 139.887 102.957C140.354 102.763 140.779 102.479 141.136 102.121C141.494 101.763 141.777 101.338 141.97 100.87C142.163 100.402 142.261 99.901 142.26 99.3951V88.9299C142.265 88.4219 142.168 87.9181 141.977 87.4476C141.785 86.977 141.503 86.5491 141.145 86.1883C140.787 85.8276 140.362 85.5413 139.893 85.3459C139.424 85.1506 138.921 85.05 138.413 85.05Z" fill="#FFA500"/>
<g opacity="0.4">
<path d="M138.413 85.05H127.923C126.901 85.05 125.92 85.4562 125.197 86.1793C124.474 86.9023 124.068 87.883 124.068 88.9056V99.3951C124.068 100.418 124.474 101.398 125.197 102.121C125.92 102.844 126.901 103.251 127.923 103.251H138.413C138.919 103.251 139.42 103.151 139.887 102.957C140.354 102.763 140.779 102.479 141.136 102.121C141.494 101.763 141.777 101.338 141.97 100.87C142.163 100.402 142.261 99.901 142.26 99.3951V88.9299C142.265 88.4219 142.168 87.9181 141.977 87.4476C141.785 86.977 141.503 86.5491 141.145 86.1883C140.787 85.8276 140.362 85.5413 139.893 85.3459C139.424 85.1506 138.921 85.05 138.413 85.05Z" fill="white"/>
</g>
<path d="M133.569 87.48V89.1648C134.622 89.2509 135.622 89.6645 136.428 90.3474L137.619 89.1567C136.495 88.16 135.069 87.5695 133.569 87.48Z" fill="#FFA500"/>
<path opacity="0.6" d="M133.569 87.48V89.1648C134.622 89.2509 135.622 89.6645 136.428 90.3474L137.619 89.1567C136.495 88.16 135.069 87.5695 133.569 87.48Z" fill="white"/>
<path d="M132.751 99.2007C131.558 99.1062 130.438 98.5894 129.591 97.7431C128.745 96.8969 128.228 95.7767 128.134 94.5837H126.449C126.549 96.2224 127.245 97.7679 128.406 98.9288C129.567 100.09 131.112 100.786 132.751 100.885V99.2007Z" fill="#FFA500"/>
<path opacity="0.8" d="M132.751 99.2007C131.558 99.1062 130.438 98.5894 129.591 97.7431C128.745 96.8969 128.228 95.7767 128.134 94.5837H126.449C126.549 96.2224 127.245 97.7679 128.406 98.9288C129.567 100.09 131.112 100.786 132.751 100.885V99.2007Z" fill="white"/>
<path d="M128.134 93.7656C128.23 92.5732 128.747 91.4539 129.593 90.608C130.439 89.7621 131.558 89.2447 132.751 89.1486V87.48C131.112 87.5798 129.567 88.2758 128.406 89.4367C127.245 90.5976 126.549 92.1431 126.449 93.7818L128.134 93.7656Z" fill="#FFA500"/>
<path opacity="0.7" d="M128.134 93.7656C128.23 92.5732 128.747 91.4539 129.593 90.608C130.439 89.7621 131.558 89.2447 132.751 89.1486V87.48C131.112 87.5798 129.567 88.2758 128.406 89.4367C127.245 90.5976 126.549 92.1431 126.449 93.7818L128.134 93.7656Z" fill="white"/>
<path d="M138.194 89.7156L137.003 90.9063C137.604 91.6137 137.997 92.473 138.141 93.3896C138.285 94.3062 138.173 95.2447 137.818 96.1019C137.463 96.9591 136.879 97.7019 136.129 98.2486C135.38 98.7953 134.494 99.1247 133.569 99.2007V100.886C134.827 100.809 136.039 100.381 137.066 99.6491C138.092 98.9172 138.892 97.9116 139.374 96.7468C139.857 95.582 140.002 94.3051 139.793 93.0619C139.584 91.8186 139.03 90.6591 138.194 89.7156Z" fill="white"/>
<path d="M176.151 84.3453L178.427 84.2481L181.626 119.572H179.196C177.989 119.459 177.706 118.098 177.374 115.522L175.138 90.8577C174.62 85.05 175.616 84.3453 176.151 84.3453Z" fill="#FFA500"/>
<path opacity="0.3" d="M176.151 84.3453L178.427 84.2481L181.626 119.572H179.196C177.989 119.459 177.706 118.098 177.374 115.522L175.138 90.8577C174.62 85.05 175.616 84.3453 176.151 84.3453Z" fill="black"/>
<path d="M179.82 119.572H227.699C227.831 119.563 227.96 119.526 228.076 119.464C228.193 119.401 228.295 119.314 228.375 119.209C228.456 119.105 228.513 118.984 228.543 118.855C228.573 118.726 228.575 118.592 228.55 118.462L225.561 85.3497C225.546 85.0691 225.431 84.8031 225.236 84.6007C225.041 84.3983 224.78 84.2731 224.5 84.2481H176.58C176.448 84.2562 176.32 84.2922 176.203 84.3538C176.086 84.4153 175.983 84.501 175.902 84.6052C175.821 84.7094 175.763 84.8297 175.732 84.958C175.701 85.0864 175.697 85.2199 175.721 85.3497L178.718 118.462C178.73 118.752 178.85 119.026 179.054 119.231C179.258 119.437 179.531 119.558 179.82 119.572Z" fill="#FFA500"/>
<path d="M181.618 115.384H225.099L222.685 87.8202H179.204L181.618 115.384Z" fill="#FFA500"/>
<path d="M182.25 117.547H225.091C225.373 117.552 225.653 117.497 225.912 117.386C226.171 117.274 226.404 117.109 226.594 116.9C226.784 116.692 226.927 116.445 227.015 116.177C227.102 115.908 227.131 115.624 227.1 115.344L224.71 87.9498C224.652 87.3469 224.37 86.7875 223.921 86.3815C223.471 85.9754 222.886 85.7519 222.28 85.7547H179.439C179.158 85.7483 178.878 85.8023 178.619 85.913C178.359 86.0236 178.127 86.1884 177.937 86.3963C177.746 86.6042 177.603 86.8504 177.516 87.1183C177.428 87.3862 177.399 87.6697 177.431 87.9498L179.82 115.344C179.877 115.948 180.158 116.51 180.607 116.917C181.057 117.325 181.643 117.55 182.25 117.547Z" fill="#263238"/>
<path d="M181.618 115.384H225.099L222.685 87.8202H179.204L181.618 115.384Z" fill="#FFA500"/>
<path opacity="0.4" d="M181.618 115.384H225.099L222.685 87.8202H179.204L181.618 115.384Z" fill="white"/>
<path d="M185.166 100.505L185.474 99.8244C185.849 100.088 186.296 100.229 186.754 100.229C187.288 100.229 187.507 100.051 187.507 99.8163C187.507 99.0873 185.247 99.5895 185.247 98.1477C185.247 97.4835 185.774 96.9327 186.867 96.9327C187.339 96.9243 187.803 97.0447 188.212 97.281L187.936 97.9614C187.609 97.7712 187.238 97.668 186.859 97.6617C186.324 97.6617 186.122 97.8561 186.122 98.0991C186.122 98.82 188.382 98.3259 188.382 99.7191C188.382 100.367 187.839 100.918 186.762 100.918C186.2 100.946 185.643 100.802 185.166 100.505Z" fill="white"/>
<path d="M188.77 98.9415C188.746 98.5155 188.85 98.092 189.069 97.7259C189.289 97.3597 189.613 97.0679 190 96.8881C190.387 96.7083 190.819 96.6488 191.24 96.7174C191.661 96.786 192.052 96.9796 192.362 97.2729C192.672 97.5662 192.886 97.9459 192.978 98.3626C193.07 98.7794 193.034 99.214 192.876 99.6103C192.717 100.007 192.444 100.346 192.09 100.585C191.736 100.824 191.319 100.951 190.893 100.95C190.619 100.966 190.346 100.925 190.089 100.831C189.832 100.737 189.597 100.592 189.398 100.404C189.2 100.215 189.041 99.9888 188.933 99.7374C188.825 99.4859 188.77 99.2151 188.77 98.9415ZM192.116 98.9415C192.111 98.7007 192.035 98.4666 191.898 98.2687C191.761 98.0708 191.568 97.9178 191.344 97.829C191.12 97.7401 190.875 97.7193 190.639 97.7692C190.404 97.8191 190.188 97.9375 190.02 98.1095C189.851 98.2815 189.737 98.4994 189.692 98.736C189.646 98.9726 189.672 99.2172 189.765 99.4393C189.858 99.6614 190.015 99.851 190.216 99.9843C190.416 100.118 190.652 100.189 190.893 100.189C191.057 100.194 191.22 100.164 191.372 100.103C191.524 100.042 191.662 99.9494 191.777 99.8323C191.891 99.7152 191.981 99.5756 192.039 99.4223C192.098 99.269 192.124 99.1053 192.116 98.9415Z" fill="white"/>
<path d="M194.602 97.7265V98.7471H196.401V99.4761H194.602V100.886H193.703V97.0056H196.636V97.7265H194.602Z" fill="white"/>
<path d="M198.085 97.7346H196.83V97.0056H200.216V97.7346H198.976V100.886H198.077L198.085 97.7346Z" fill="white"/>
<path d="M206.55 97.0056L205.278 100.886H204.314L203.456 98.2611L202.581 100.886H201.617L200.337 97.0056H201.277L202.152 99.7353L203.067 97.0056H203.877L204.76 99.7596L205.667 97.0056H206.55Z" fill="white"/>
<path d="M209.442 100.051H207.643L207.295 100.861H206.38L208.105 96.9813H208.98L210.713 100.861H209.79L209.442 100.051ZM209.158 99.3708L208.543 97.8885L207.927 99.3708H209.158Z" fill="white"/>
<path d="M213.613 100.886L212.868 99.8082H212.058V100.886H211.159V97.0056H212.836C213.881 97.0056 214.529 97.5402 214.529 98.415C214.538 98.6778 214.464 98.9369 214.319 99.1561C214.174 99.3754 213.964 99.5439 213.719 99.6381L214.593 100.886H213.613ZM212.803 97.7346H212.074V99.0873H212.803C213.354 99.0873 213.613 98.8362 213.613 98.415C213.613 97.9938 213.322 97.7346 212.771 97.7346H212.803Z" fill="white"/>
<path d="M218.23 100.165V100.886H215.225V97.0056H218.157V97.7265H216.116V98.5365H217.89V99.2331H216.084V100.132L218.23 100.165Z" fill="white"/>
<path d="M182.841 103.68H183.74V107.568H182.841V103.68Z" fill="white"/>
<path d="M188.228 103.68V107.568H187.491L185.555 105.211V107.568H184.68V103.68H185.425L187.353 106.045V103.68H188.228Z" fill="white"/>
<path d="M189.953 104.401H188.73V103.68H192.116V104.417H190.868V107.568H189.969L189.953 104.401Z" fill="white"/>
<path d="M195.591 106.831V107.552H192.586V103.68H195.518V104.409H193.477V105.219H195.283V105.916H193.477V106.815L195.591 106.831Z" fill="white"/>
<path d="M198.92 105.551H199.73V107.123C199.271 107.448 198.721 107.621 198.158 107.617C197.621 107.617 197.106 107.403 196.727 107.023C196.347 106.644 196.133 106.129 196.133 105.592C196.133 105.055 196.347 104.539 196.727 104.16C197.106 103.78 197.621 103.567 198.158 103.567C198.461 103.555 198.763 103.608 199.042 103.725C199.322 103.841 199.573 104.016 199.778 104.239L199.195 104.774C199.071 104.633 198.917 104.521 198.745 104.445C198.573 104.37 198.387 104.332 198.199 104.336C198.027 104.322 197.854 104.344 197.692 104.4C197.529 104.456 197.379 104.546 197.253 104.663C197.126 104.779 197.025 104.921 196.956 105.079C196.887 105.237 196.851 105.407 196.851 105.579C196.851 105.752 196.887 105.922 196.956 106.08C197.025 106.238 197.126 106.38 197.253 106.496C197.379 106.613 197.529 106.702 197.692 106.759C197.854 106.815 198.027 106.837 198.199 106.823C198.442 106.826 198.682 106.768 198.896 106.653L198.92 105.551Z" fill="white"/>
<path d="M203.059 107.552L202.306 106.466H201.496V107.552H200.596V103.68H202.281C203.318 103.68 203.966 104.223 203.966 105.089C203.977 105.354 203.904 105.614 203.759 105.835C203.614 106.056 203.403 106.226 203.156 106.321L204.031 107.568L203.059 107.552ZM202.208 104.401H201.479V105.754H202.208C202.759 105.754 203.018 105.503 203.018 105.073C203.018 104.644 202.759 104.401 202.208 104.401Z" fill="white"/>
<path d="M207.222 106.717H205.416L205.076 107.527H204.12L205.853 103.639H206.736L208.478 107.527H207.53L207.222 106.717ZM206.939 106.037L206.323 104.547L205.708 106.037H206.939Z" fill="white"/>
<path d="M209.531 104.401H208.283V103.68H211.669V104.417H210.422V107.568H209.531V104.401Z" fill="white"/>
<path d="M212.155 103.68H213.03V107.568H212.131L212.155 103.68Z" fill="white"/>
<path d="M213.735 105.608C213.712 105.184 213.817 104.763 214.036 104.399C214.255 104.036 214.578 103.746 214.963 103.568C215.348 103.39 215.778 103.331 216.197 103.4C216.616 103.469 217.005 103.661 217.313 103.953C217.621 104.245 217.835 104.622 217.926 105.037C218.018 105.451 217.983 105.884 217.826 106.278C217.669 106.673 217.398 107.011 217.047 107.25C216.696 107.488 216.281 107.616 215.857 107.617C215.584 107.632 215.31 107.592 215.053 107.498C214.796 107.403 214.561 107.258 214.363 107.07C214.164 106.882 214.006 106.655 213.898 106.404C213.79 106.152 213.734 105.881 213.735 105.608ZM217.072 105.608C217.066 105.369 216.989 105.137 216.852 104.942C216.714 104.746 216.522 104.596 216.3 104.509C216.077 104.422 215.834 104.402 215.601 104.453C215.367 104.503 215.154 104.621 214.987 104.792C214.82 104.964 214.708 105.18 214.663 105.415C214.619 105.65 214.645 105.892 214.738 106.112C214.831 106.332 214.986 106.52 215.185 106.652C215.384 106.785 215.618 106.855 215.857 106.855C216.021 106.861 216.185 106.833 216.338 106.772C216.49 106.711 216.629 106.619 216.744 106.501C216.859 106.384 216.948 106.244 217.006 106.09C217.064 105.936 217.089 105.772 217.08 105.608H217.072Z" fill="white"/>
<path d="M222.223 103.68V107.568H221.486L219.55 105.211V107.568H218.7V103.68H219.445L221.381 106.045V103.68H222.223Z" fill="white"/>
<path opacity="0.1" d="M194.125 85.7628L185.636 117.531H188.495L196.895 85.7628H194.125Z" fill="white"/>
<path opacity="0.1" d="M198.539 85.7628L190.042 117.531H195.712L204.112 85.7628H198.539Z" fill="white"/>
<path d="M179.204 87.8202L179.423 90.2907H222.904L222.685 87.8202H179.204Z" fill="#FFA500"/>
<path d="M181.205 88.9218C181.212 88.9849 181.205 89.0488 181.186 89.1092C181.166 89.1696 181.133 89.225 181.09 89.2718C181.047 89.3186 180.995 89.3557 180.937 89.3805C180.878 89.4054 180.815 89.4174 180.751 89.4159C180.616 89.4146 180.486 89.3635 180.386 89.2724C180.286 89.1813 180.223 89.0565 180.209 88.9218C180.202 88.8583 180.209 88.794 180.228 88.7333C180.248 88.6725 180.28 88.6166 180.323 88.5691C180.366 88.5217 180.418 88.4839 180.477 88.4581C180.535 88.4324 180.598 88.4192 180.662 88.4196C180.798 88.4228 180.929 88.4757 181.029 88.5681C181.129 88.6606 181.191 88.7864 181.205 88.9218Z" fill="white"/>
<path d="M182.517 88.9218C182.524 88.9849 182.518 89.0488 182.498 89.1092C182.478 89.1696 182.446 89.225 182.403 89.2718C182.36 89.3186 182.307 89.3557 182.249 89.3805C182.19 89.4054 182.127 89.4174 182.064 89.4159C181.928 89.4146 181.798 89.3635 181.698 89.2724C181.598 89.1813 181.535 89.0565 181.521 88.9218C181.514 88.8583 181.521 88.794 181.541 88.7333C181.56 88.6725 181.593 88.6166 181.635 88.5691C181.678 88.5217 181.731 88.4839 181.789 88.4581C181.848 88.4324 181.911 88.4192 181.975 88.4196C182.111 88.4228 182.241 88.4757 182.341 88.5681C182.441 88.6606 182.504 88.7864 182.517 88.9218Z" fill="white"/>
<path d="M183.87 88.9218C183.877 88.9849 183.87 89.0488 183.851 89.1092C183.831 89.1696 183.798 89.225 183.755 89.2718C183.712 89.3186 183.66 89.3557 183.601 89.3805C183.543 89.4054 183.48 89.4174 183.416 89.4159C183.281 89.4146 183.151 89.3635 183.051 89.2724C182.951 89.1813 182.888 89.0565 182.874 88.9218C182.867 88.8583 182.874 88.794 182.893 88.7333C182.913 88.6725 182.945 88.6166 182.988 88.5691C183.031 88.5217 183.083 88.4839 183.142 88.4581C183.2 88.4324 183.263 88.4192 183.327 88.4196C183.463 88.4228 183.594 88.4757 183.694 88.5681C183.793 88.6606 183.856 88.7864 183.87 88.9218Z" fill="white"/>
<path d="M229.165 119.669H180.363C179.79 119.669 179.326 120.134 179.326 120.706V121.33C179.326 121.903 179.79 122.367 180.363 122.367H229.165C229.738 122.367 230.202 121.903 230.202 121.33V120.706C230.202 120.134 229.738 119.669 229.165 119.669Z" fill="#FFA500"/>
<path d="M198.685 119.669H249.14V120.285C249.14 120.837 248.921 121.367 248.53 121.757C248.14 122.147 247.61 122.367 247.058 122.367H200.767C200.215 122.367 199.685 122.147 199.295 121.757C198.904 121.367 198.685 120.837 198.685 120.285V119.669Z" fill="#FFA500"/>
<path opacity="0.3" d="M198.685 119.669H249.14V120.285C249.14 120.837 248.921 121.367 248.53 121.757C248.14 122.147 247.61 122.367 247.058 122.367H200.767C200.215 122.367 199.685 122.147 199.295 121.757C198.904 121.367 198.685 120.837 198.685 120.285V119.669Z" fill="white"/>
<path opacity="0.3" d="M219.802 119.742C219.804 120.1 219.947 120.442 220.201 120.694C220.454 120.946 220.797 121.087 221.154 121.087H227.326C227.683 121.087 228.025 120.945 228.277 120.693C228.529 120.441 228.671 120.099 228.671 119.742H219.802Z" fill="black"/>
<path d="M156.557 174.49L151.34 172.976C150.834 172.805 150.309 172.693 149.777 172.643L146.278 172.498L143.419 171.299C143.263 171.209 143.088 171.159 142.909 171.154C142.729 171.149 142.551 171.188 142.391 171.268C142.23 171.348 142.092 171.467 141.989 171.614C141.885 171.761 141.82 171.931 141.799 172.109L141.612 174.037C141.595 174.229 141.629 174.422 141.71 174.596C141.791 174.771 141.917 174.922 142.074 175.033L146.286 177.981L152.175 176.993L157.456 179.545L158.08 174.96L156.557 174.49Z" fill="#B55B52"/>
<path d="M248.443 175.916L253.724 174.628C254.237 174.482 254.764 174.392 255.296 174.361H258.795L261.703 173.291C261.863 173.198 262.045 173.147 262.23 173.144C262.416 173.141 262.599 173.187 262.762 173.275C262.925 173.364 263.062 173.494 263.161 173.651C263.259 173.809 263.315 173.989 263.323 174.174L263.428 176.11C263.439 176.301 263.399 176.492 263.312 176.663C263.225 176.833 263.095 176.978 262.934 177.082L258.592 179.852L252.72 178.613L247.333 180.938L246.912 176.337L248.443 175.916Z" fill="#B55B52"/>
<path d="M189.41 322.736L188.163 334.198L181.902 333.534L182.542 321.035L189.41 322.736Z" fill="#B55B52"/>
<path d="M178.953 333.647C178.287 333.676 177.633 333.453 177.123 333.023C177.063 332.923 177.037 332.807 177.047 332.69C177.057 332.574 177.103 332.464 177.179 332.375C177.238 332.292 177.312 332.221 177.398 332.167C177.485 332.112 177.581 332.076 177.682 332.06C178.759 331.849 180.881 333.275 180.97 333.339C180.997 333.356 181.018 333.38 181.029 333.41C181.041 333.439 181.043 333.471 181.035 333.501C181.027 333.531 181.011 333.558 180.988 333.578C180.964 333.598 180.936 333.611 180.905 333.615C180.257 333.686 179.604 333.697 178.953 333.647ZM178.03 332.343C177.936 332.326 177.84 332.326 177.746 332.343C177.683 332.348 177.622 332.368 177.567 332.4C177.512 332.432 177.466 332.476 177.43 332.529C177.309 332.708 177.341 332.797 177.382 332.853C177.641 333.291 179.237 333.42 180.436 333.364C179.706 332.873 178.889 332.527 178.03 332.343Z" fill="#FFA500"/>
<path d="M180.881 333.615C180.86 333.623 180.837 333.623 180.816 333.615C180.087 333.226 178.662 331.735 178.856 331.031C178.856 330.861 179.026 330.658 179.439 330.65C179.589 330.646 179.738 330.673 179.878 330.728C180.017 330.784 180.143 330.868 180.249 330.974C181.011 331.695 181.059 333.404 181.059 333.501C181.06 333.527 181.053 333.553 181.041 333.576C181.028 333.599 181.009 333.618 180.986 333.631L180.881 333.615ZM179.52 330.925H179.439C179.164 330.925 179.14 331.039 179.123 331.079C179.05 331.501 179.974 332.651 180.743 333.177C180.725 332.453 180.485 331.752 180.055 331.168C179.917 331.035 179.736 330.954 179.545 330.942L179.52 330.925Z" fill="#FFA500"/>
<path d="M181.618 332.772L188.536 333.299C188.663 333.305 188.784 333.355 188.879 333.441C188.973 333.527 189.035 333.642 189.054 333.769L189.864 339.495C189.881 339.618 189.874 339.743 189.842 339.863C189.811 339.983 189.755 340.096 189.68 340.195C189.605 340.293 189.511 340.376 189.403 340.438C189.296 340.5 189.177 340.54 189.054 340.556H188.851C186.365 340.322 184.153 340.022 181.051 339.795C177.382 339.52 178.281 340.03 173.964 339.795C171.364 339.641 171.112 336.652 172.222 336.555C177.309 336.296 177.949 334.814 180.031 333.161C180.493 332.838 181.059 332.699 181.618 332.772Z" fill="#263238"/>
<path opacity="0.2" d="M182.185 327.969L186.859 327.799L188.771 328.593L188.511 331.015L182.039 330.634L182.185 327.969Z" fill="black"/>
<path d="M205.286 207.271L193.274 279.11L190.35 329.484L180.946 329.322C178.974 311.286 178.468 293.121 179.431 275.003C180.897 248.33 187.102 217.137 187.79 208.243L191.265 202.103L198.183 202.97L205.286 207.271Z" fill="#FFA500"/>
<path d="M223.406 335.518L228.752 334.911C228.752 334.911 228.598 332.707 228.331 329.152C228.274 328.342 228.209 327.532 228.145 326.584L222.005 327.677H221.94C221.94 327.815 221.997 327.953 222.021 328.082C222.151 328.803 222.288 329.467 222.402 330.107C223.009 333.453 223.406 335.518 223.406 335.518Z" fill="#B55B52"/>
<path d="M229.765 333.007C229.733 333.005 229.702 332.994 229.677 332.975C229.651 332.957 229.631 332.931 229.619 332.902C229.61 332.873 229.61 332.842 229.619 332.814C229.627 332.785 229.644 332.759 229.667 332.74C229.756 332.667 231.741 331.047 232.843 331.169C233.045 331.188 233.233 331.284 233.369 331.436C233.453 331.519 233.509 331.626 233.529 331.742C233.55 331.858 233.533 331.977 233.482 332.084C233.28 332.465 232.494 332.74 231.717 332.894C231.07 332.984 230.417 333.022 229.765 333.007ZM230.21 332.724C231.409 332.675 232.988 332.408 233.215 331.914C233.215 331.857 233.272 331.76 233.134 331.598C233.095 331.547 233.045 331.506 232.987 331.478C232.93 331.45 232.866 331.435 232.802 331.436C232.705 331.424 232.607 331.424 232.51 331.436C231.67 331.719 230.89 332.155 230.21 332.724Z" fill="#FFA500"/>
<path d="M229.684 333.007C229.658 332.999 229.635 332.982 229.619 332.961C229.604 332.939 229.595 332.913 229.594 332.886C229.594 332.805 229.473 331.079 230.17 330.294C230.269 330.175 230.393 330.079 230.532 330.012C230.672 329.944 230.825 329.908 230.98 329.905C231.401 329.905 231.563 330.059 231.603 330.229C231.854 330.917 230.566 332.529 229.87 332.983C229.852 332.99 229.831 332.99 229.813 332.983C229.796 332.999 229.775 333.01 229.752 333.014C229.729 333.018 229.705 333.016 229.684 333.007ZM230.899 330.196C230.712 330.23 230.543 330.327 230.421 330.472C230.041 331.091 229.86 331.812 229.902 332.537C230.607 331.946 231.417 330.715 231.312 330.302C231.312 330.302 231.255 330.156 230.988 330.18H230.899V330.196Z" fill="#FFA500"/>
<path d="M228.574 332.367L223.115 333.177C222.988 333.199 222.873 333.263 222.788 333.359C222.702 333.454 222.652 333.576 222.645 333.704L222.329 339.487C222.32 339.609 222.336 339.732 222.374 339.848C222.413 339.963 222.475 340.071 222.556 340.162C222.636 340.254 222.734 340.329 222.844 340.383C222.954 340.437 223.073 340.468 223.195 340.475C223.263 340.484 223.331 340.484 223.398 340.475C225.828 340.022 226.638 339.811 229.716 339.309C233.353 338.71 232.502 339.309 236.787 338.653C239.363 338.256 239.355 335.259 238.237 335.291C233.142 335.51 229.109 332.254 228.574 332.367Z" fill="#263238"/>
<path opacity="0.2" d="M222.377 330.115L228.331 329.152C228.274 328.342 228.209 327.532 228.145 326.584L222.005 327.677V328.09C222.126 328.811 222.264 329.476 222.377 330.115Z" fill="black"/>
<path opacity="0.2" d="M202.411 223.957L199.171 243.162C198.207 229.392 199.495 213.006 199.495 213.006L202.411 223.957Z" fill="black"/>
<path d="M215.59 205.481C215.59 205.481 223.22 260.917 226.063 275.181C228.59 287.85 229.052 327.92 229.052 327.92L220.685 328.86C220.685 328.86 215.906 306.812 214.326 291.308C213.775 285.898 213.929 281.362 213.435 278.575C212.779 274.898 191.444 215.525 195.413 206.153L215.59 205.481Z" fill="#FFA500"/>
<path d="M187.466 198.045C187.746 195.647 187.814 193.229 187.669 190.82C185.749 167.897 185.061 166.52 185.239 162.47C185.25 162.111 185.37 161.764 185.583 161.475C185.795 161.186 186.091 160.968 186.43 160.85C202.289 155.455 214.626 158.015 218.206 160.04C222.977 162.729 221.073 165.605 221.017 166.423C220.555 173.219 216.813 185.814 216.732 196.838C216.732 198.458 216.894 202.346 216.999 204.501C217.019 204.924 216.887 205.34 216.627 205.674C216.367 206.008 215.996 206.239 215.581 206.323C212.026 207.06 196.425 207.255 193.501 207.133C190.706 207.036 188.868 206.866 187.693 206.712C187.451 206.679 187.218 206.595 187.01 206.468C186.801 206.34 186.621 206.17 186.482 205.969C186.343 205.768 186.247 205.54 186.2 205.3C186.153 205.059 186.157 204.812 186.211 204.574C186.664 202.638 187.329 199.479 187.466 198.045Z" fill="#263238"/>
<path d="M206.55 146.926C205.951 150.474 206.194 155.682 208.729 157.991C208.729 157.991 208.68 161.603 198.766 165.75C195.024 160.664 197.68 158.258 197.68 158.258C201.625 157.221 200.669 155.609 199.916 152.871L206.55 146.926Z" fill="#B55B52"/>
<path opacity="0.2" d="M203.853 149.315L199.948 152.871C200.135 153.504 200.265 154.152 200.337 154.807C201.852 154.556 204.193 153.187 204.476 151.567C204.458 150.777 204.244 150.003 203.853 149.315Z" fill="black"/>
<path d="M211.021 140.738C209.579 146.578 209.085 149.072 205.546 151.551C200.216 155.293 193.396 152.231 193.031 146.075C192.739 140.535 195.169 131.884 201.382 130.629C202.751 130.341 204.171 130.407 205.508 130.822C206.844 131.236 208.052 131.986 209.018 132.998C209.983 134.011 210.674 135.253 211.025 136.608C211.375 137.962 211.374 139.384 211.021 140.738Z" fill="#B55B52"/>
<path d="M200.88 139.984C200.783 140.462 200.459 140.794 200.151 140.794C199.843 140.794 199.649 140.292 199.738 139.814C199.827 139.336 200.159 139.004 200.467 139.045C200.775 139.085 200.953 139.523 200.88 139.984Z" fill="#263238"/>
<path d="M195.502 139.045C195.412 139.531 195.08 139.855 194.773 139.855C194.465 139.855 194.27 139.352 194.359 138.874C194.449 138.397 194.781 138.064 195.088 138.113C195.396 138.162 195.591 138.559 195.502 139.045Z" fill="#263238"/>
<path d="M197.405 140.738C196.773 141.756 196.005 142.682 195.121 143.491C195.334 143.712 195.594 143.884 195.88 143.995C196.167 144.105 196.475 144.152 196.781 144.131L197.405 140.738Z" fill="#A02724"/>
<path d="M199.049 146.497C198.807 146.49 198.566 146.463 198.329 146.416C198.31 146.413 198.293 146.406 198.277 146.396C198.262 146.387 198.248 146.374 198.238 146.359C198.227 146.343 198.22 146.326 198.216 146.308C198.212 146.29 198.212 146.272 198.215 146.254C198.218 146.235 198.225 146.216 198.235 146.2C198.245 146.184 198.259 146.17 198.275 146.159C198.291 146.148 198.309 146.141 198.328 146.138C198.347 146.135 198.367 146.135 198.385 146.14C198.981 146.261 199.597 146.24 200.184 146.079C200.77 145.919 201.311 145.624 201.763 145.217C201.79 145.189 201.827 145.173 201.865 145.172C201.904 145.171 201.942 145.186 201.969 145.213C201.997 145.24 202.014 145.276 202.014 145.315C202.015 145.354 202 145.391 201.974 145.419C201.581 145.783 201.121 146.066 200.619 146.25C200.117 146.435 199.584 146.519 199.049 146.497Z" fill="#263238"/>
<path d="M203.448 139.247C203.388 139.258 203.326 139.249 203.272 139.221C203.217 139.193 203.174 139.148 203.148 139.093C202.892 138.701 202.558 138.366 202.166 138.109C201.774 137.853 201.334 137.68 200.872 137.603C200.796 137.591 200.727 137.549 200.682 137.487C200.636 137.425 200.617 137.347 200.629 137.271C200.641 137.197 200.682 137.13 200.742 137.086C200.803 137.042 200.879 137.024 200.953 137.036C201.507 137.124 202.036 137.331 202.504 137.642C202.971 137.954 203.364 138.364 203.658 138.842C203.69 138.91 203.694 138.987 203.67 139.058C203.645 139.129 203.595 139.188 203.529 139.223C203.504 139.237 203.476 139.245 203.448 139.247Z" fill="#263238"/>
<path d="M194.554 137.174C194.503 137.185 194.45 137.183 194.4 137.168C194.35 137.152 194.305 137.123 194.27 137.084C194.243 137.058 194.222 137.026 194.207 136.992C194.193 136.957 194.185 136.92 194.185 136.882C194.185 136.844 194.193 136.807 194.207 136.772C194.222 136.737 194.243 136.706 194.27 136.679C194.599 136.356 195.002 136.118 195.444 135.987C195.886 135.856 196.354 135.835 196.806 135.926C196.841 135.933 196.875 135.947 196.905 135.967C196.935 135.987 196.961 136.013 196.98 136.043C197 136.073 197.013 136.107 197.019 136.143C197.026 136.178 197.025 136.215 197.016 136.25C196.999 136.323 196.953 136.386 196.89 136.426C196.826 136.465 196.749 136.478 196.676 136.461C196.32 136.399 195.954 136.424 195.608 136.533C195.263 136.641 194.949 136.83 194.692 137.084C194.656 137.127 194.608 137.158 194.554 137.174Z" fill="#263238"/>
<path d="M209.79 157.634L208.745 157.456L202.937 160.623L201.139 160.688L197.689 157.756L196.53 158.031C195.455 161.355 195.249 164.899 195.931 168.326L197.883 178.127L199.924 188.86L200.362 187.871L201.982 184.178L204.201 179.966L208.251 169.663L209.401 165.418C210.083 162.883 210.202 160.229 209.749 157.642L209.79 157.634Z" fill="#263238"/>
<path opacity="0.2" d="M203.529 160.696C197.3 160.753 196.611 158.46 196.611 158.46V157.95C196.611 157.95 194.732 161.49 200.135 162.113C205.538 162.737 209.142 160.178 209.912 158.639C209.312 159.416 207.7 160.663 203.529 160.696Z" fill="black"/>
<path d="M210.794 132.71C210.595 131.766 210.145 130.893 209.49 130.183C209.152 129.842 208.694 129.645 208.214 129.635C207.733 129.624 207.268 129.8 206.914 130.126C206.386 129.528 205.727 129.06 204.988 128.76C204.248 128.459 203.45 128.333 202.654 128.393C201.898 128.459 201.17 128.71 200.534 129.122C199.897 129.534 199.371 130.096 199.001 130.758C198.28 132.095 196.004 132.565 194.497 132.719C195.485 133.715 197.932 134.338 199.155 133.666C198.855 134.136 197.486 134.387 196.927 134.476C197.827 135.019 198.827 135.374 199.867 135.521C200.389 135.586 200.918 135.492 201.386 135.252C201.854 135.012 202.239 134.638 202.492 134.176C202.267 134.556 202.171 134.998 202.22 135.436C202.268 135.874 202.457 136.285 202.759 136.606C203.068 136.925 203.472 137.134 203.91 137.204C204.348 137.274 204.796 137.201 205.189 136.995C204.94 136.917 204.724 136.757 204.577 136.541C204.43 136.325 204.36 136.065 204.379 135.805C204.388 135.525 204.483 135.255 204.651 135.032C204.819 134.808 205.052 134.642 205.319 134.557C205.398 135.307 205.767 135.996 206.347 136.477C206.882 136.89 207.352 137.06 207.684 137.651C208.016 138.243 207.619 139.676 206.558 139.579C207.036 140.09 208.988 139.903 209.207 139.239C209.035 140.077 208.684 140.867 208.178 141.557C207.672 142.246 207.022 142.818 206.275 143.232C206.663 143.254 207.046 143.336 207.409 143.475C207.621 143.523 207.821 143.613 207.998 143.739C208.175 143.866 208.324 144.027 208.437 144.212C208.542 144.497 208.589 144.8 208.577 145.103C208.564 145.406 208.492 145.703 208.364 145.978C207.876 147.483 207.292 148.955 206.615 150.385C207.583 150.124 208.479 149.647 209.236 148.988C209.992 148.33 210.589 147.509 210.981 146.586C211.906 146.267 212.7 145.653 213.241 144.837C213.781 144.021 214.037 143.05 213.97 142.074C214.928 141.229 215.578 140.089 215.816 138.834C215.896 138.229 215.751 137.615 215.407 137.11C215.063 136.605 214.546 136.244 213.953 136.096C214.151 135.616 214.214 135.091 214.137 134.578C214.06 134.064 213.845 133.581 213.516 133.18C213.368 132.971 213.181 132.792 212.964 132.655C212.747 132.518 212.505 132.425 212.253 132.381C212 132.338 211.741 132.344 211.491 132.401C211.241 132.457 211.004 132.562 210.794 132.71Z" fill="#263238"/>
<path d="M210.778 144.99C210.25 145.917 209.376 146.599 208.348 146.885C206.979 147.25 206.307 146.011 206.728 144.715C207.093 143.556 208.243 141.969 209.62 142.155C209.856 142.195 210.082 142.282 210.285 142.409C210.488 142.537 210.663 142.703 210.802 142.899C210.94 143.095 211.039 143.316 211.092 143.549C211.145 143.783 211.151 144.025 211.11 144.261C211.058 144.527 210.944 144.776 210.778 144.99Z" fill="#B55B52"/>
<path d="M208.17 140.786L204.185 140.106C203.853 139.085 202.411 138.842 201.803 138.737C201.196 138.631 199.649 138.372 199.033 139.352L197.648 139.109C197.389 137.992 195.866 137.724 195.218 137.619C194.57 137.514 192.505 137.157 192.213 138.842C192.173 139.523 192.385 140.194 192.808 140.728C193.232 141.262 193.838 141.621 194.51 141.736C195.181 141.851 195.872 141.715 196.45 141.353C197.027 140.991 197.451 140.428 197.64 139.774C197.648 139.682 197.648 139.59 197.64 139.498L198.831 139.701C198.803 139.788 198.782 139.878 198.766 139.968C198.728 140.648 198.942 141.317 199.366 141.849C199.791 142.381 200.396 142.738 201.067 142.852C201.738 142.967 202.428 142.83 203.004 142.468C203.581 142.106 204.004 141.545 204.193 140.891C204.205 140.759 204.205 140.627 204.193 140.494L208.048 141.159C208.574 141.247 209.053 141.516 209.401 141.92L209.685 141.677C209.295 141.217 208.761 140.903 208.17 140.786ZM194.594 141.369C194.011 141.304 193.476 141.013 193.104 140.559C192.732 140.105 192.552 139.524 192.602 138.939C192.764 138.016 193.525 137.74 195.169 138.016C196.814 138.291 197.446 138.826 197.284 139.741C197.136 140.313 196.77 140.804 196.264 141.109C195.758 141.413 195.153 141.507 194.578 141.369H194.594ZM201.163 142.487C200.581 142.422 200.047 142.131 199.676 141.677C199.305 141.222 199.127 140.641 199.179 140.057C199.333 139.134 200.102 138.858 201.747 139.142C203.391 139.425 204.015 139.952 203.861 140.859C203.713 141.433 203.346 141.925 202.838 142.23C202.33 142.535 201.723 142.627 201.147 142.487H201.163Z" fill="#263238"/>
<path d="M155.52 173.713C161.492 175.256 167.699 175.679 173.826 174.96C177.003 169.405 181.307 164.577 186.462 160.785L188.73 169.29C188.73 169.29 181.975 180.022 176.507 182.493C172.174 184.453 159.173 180.962 153.957 179.423C154.034 177.425 154.569 175.472 155.52 173.713Z" fill="#263238"/>
<path d="M249.828 174.668C243.831 176.063 237.627 176.338 231.53 175.478C228.481 169.852 224.283 164.929 219.21 161.028L216.78 169.476C216.78 169.476 223.301 180.363 228.72 182.947C233.005 184.996 246.078 181.788 251.327 180.371C251.265 178.381 250.753 176.431 249.828 174.668Z" fill="#263238"/>
<path d="M196.636 156.16V158.46C196.636 158.46 197.122 160.955 203.351 160.89C209.579 160.826 210.308 157.885 210.308 157.885V156.217C210.312 155.935 210.253 155.657 210.136 155.401C210.019 155.145 209.846 154.919 209.631 154.738C209.415 154.558 209.162 154.427 208.89 154.356C208.617 154.286 208.333 154.276 208.057 154.329C204.981 154.813 201.849 154.813 198.774 154.329C198.511 154.295 198.244 154.317 197.989 154.392C197.735 154.468 197.499 154.597 197.298 154.769C197.096 154.942 196.933 155.155 196.819 155.394C196.705 155.634 196.642 155.895 196.636 156.16Z" fill="#263238"/>
</svg>
