<svg width="322" height="243" viewBox="0 0 322 243" fill="none" xmlns="http://www.w3.org/2000/svg">
<g clip-path="url(#clip0_68_2163)">
<rect width="322" height="243" rx="10" fill="#365836"/>
<circle opacity="0.5" cx="28" cy="21" r="50" fill="#FFA500"/>
<circle opacity="0.5" cx="296" cy="220" r="50" fill="#228B22"/>
<path fill-rule="evenodd" clip-rule="evenodd" d="M184.25 75.343C184.112 75.3333 183.96 75.3333 183.8 75.3333H177.487C172.317 75.3333 167.895 79.2677 167.895 84.3958C167.895 89.524 172.32 93.4583 177.487 93.4583H183.8C183.96 93.4583 184.112 93.4583 184.255 93.4487C185.317 93.3867 186.32 92.9535 187.077 92.2297C187.833 91.5058 188.292 90.5408 188.367 89.5143C188.377 89.3693 188.377 89.2122 188.377 89.0672V79.7244C188.377 79.5794 188.377 79.4223 188.367 79.2773C188.292 78.2509 187.833 77.2858 187.077 76.562C186.32 75.8382 185.317 75.4049 184.255 75.343H184.25ZM176.93 86.8125C178.26 86.8125 179.337 85.7298 179.337 84.3958C179.337 83.0618 178.26 81.9792 176.93 81.9792C175.597 81.9792 174.52 83.0618 174.52 84.3958C174.52 85.7298 175.597 86.8125 176.93 86.8125Z" fill="#FFD68C"/>
<path fill-rule="evenodd" clip-rule="evenodd" d="M183.795 97.0833C183.881 97.08 183.967 97.0964 184.046 97.1312C184.125 97.166 184.194 97.2183 184.248 97.2837C184.301 97.3492 184.339 97.426 184.356 97.5079C184.373 97.5898 184.37 97.6745 184.347 97.7552C183.847 99.4758 183.05 100.945 181.772 102.178C179.9 103.99 177.528 104.79 174.597 105.172C171.748 105.542 168.11 105.542 163.515 105.542H158.235C153.64 105.542 150 105.542 147.153 105.172C144.223 104.79 141.85 103.988 139.977 102.18C138.108 100.37 137.278 98.0766 136.883 95.2443C136.5 92.4893 136.5 88.973 136.5 84.5312V84.2605C136.5 79.8187 136.5 76.3 136.883 73.545C137.278 70.7127 138.108 68.4193 139.977 66.6092C141.85 64.8015 144.223 63.9992 147.153 63.6173C150.003 63.25 153.64 63.25 158.235 63.25H163.515C168.11 63.25 171.75 63.25 174.597 63.6198C177.528 64.0016 179.9 64.8039 181.772 66.6116C183.05 67.8489 183.847 69.3158 184.347 71.0365C184.37 71.1171 184.373 71.2019 184.356 71.2838C184.339 71.3657 184.301 71.4425 184.248 71.5079C184.194 71.5734 184.125 71.6257 184.046 71.6605C183.967 71.6953 183.881 71.7117 183.795 71.7083H177.485C170.392 71.7083 164.142 77.1217 164.142 84.3958C164.142 91.67 170.392 97.0833 177.485 97.0833H183.795ZM145.875 72.9167C145.378 72.9167 144.901 73.1076 144.549 73.4475C144.198 73.7874 144 74.2485 144 74.7292C144 75.2099 144.198 75.6709 144.549 76.0108C144.901 76.3507 145.378 76.5417 145.875 76.5417H155.875C156.372 76.5417 156.849 76.3507 157.201 76.0108C157.552 75.6709 157.75 75.2099 157.75 74.7292C157.75 74.2485 157.552 73.7874 157.201 73.4475C156.849 73.1076 156.372 72.9167 155.875 72.9167H145.875Z" fill="#FFD68C"/>
<path d="M102.203 171.41C102.203 172.73 102.035 173.934 101.699 175.02C101.363 176.098 100.863 177.027 100.199 177.809C99.543 178.582 98.7266 179.18 97.75 179.602C96.7734 180.023 95.6406 180.234 94.3516 180.234C93.0234 180.234 91.8633 180.023 90.8711 179.602C89.8867 179.18 89.0664 178.578 88.4102 177.797C87.7617 177.016 87.2734 176.082 86.9453 174.996C86.625 173.91 86.4648 172.707 86.4648 171.387C86.4648 169.637 86.7539 168.102 87.332 166.781C87.9102 165.461 88.7852 164.434 89.957 163.699C91.1367 162.965 92.6133 162.598 94.3867 162.598C96.082 162.598 97.5078 162.961 98.6641 163.688C99.8281 164.414 100.707 165.438 101.301 166.758C101.902 168.07 102.203 169.621 102.203 171.41ZM88.5625 171.41C88.5625 172.863 88.7695 174.121 89.1836 175.184C89.5977 176.246 90.2305 177.066 91.082 177.645C91.9414 178.223 93.0312 178.512 94.3516 178.512C95.6797 178.512 96.7656 178.223 97.6094 177.645C98.4609 177.066 99.0898 176.246 99.4961 175.184C99.9023 174.121 100.105 172.863 100.105 171.41C100.105 169.199 99.6406 167.473 98.7109 166.23C97.7891 164.98 96.3477 164.355 94.3867 164.355C93.0586 164.355 91.9648 164.641 91.1055 165.211C90.2461 165.781 89.6055 166.594 89.1836 167.648C88.7695 168.695 88.5625 169.949 88.5625 171.41ZM109.879 178.641C110.199 178.641 110.527 178.613 110.863 178.559C111.199 178.504 111.473 178.438 111.684 178.359V179.871C111.457 179.973 111.141 180.059 110.734 180.129C110.336 180.199 109.945 180.234 109.562 180.234C108.883 180.234 108.266 180.117 107.711 179.883C107.156 179.641 106.711 179.234 106.375 178.664C106.047 178.094 105.883 177.305 105.883 176.297V168.68H104.055V167.73L105.895 166.969L106.668 164.18H107.84V167.156H111.602V168.68H107.84V176.238C107.84 177.043 108.023 177.645 108.391 178.043C108.766 178.441 109.262 178.641 109.879 178.641ZM116.23 161.766V167.215C116.23 167.527 116.223 167.844 116.207 168.164C116.191 168.477 116.164 168.766 116.125 169.031H116.254C116.52 168.578 116.855 168.199 117.262 167.895C117.676 167.582 118.145 167.348 118.668 167.191C119.191 167.027 119.746 166.945 120.332 166.945C121.363 166.945 122.223 167.109 122.91 167.438C123.605 167.766 124.125 168.273 124.469 168.961C124.82 169.648 124.996 170.539 124.996 171.633V180H123.074V171.762C123.074 170.691 122.828 169.891 122.336 169.359C121.852 168.828 121.105 168.562 120.098 168.562C119.145 168.562 118.383 168.746 117.812 169.113C117.25 169.473 116.844 170.004 116.594 170.707C116.352 171.41 116.23 172.27 116.23 173.285V180H114.285V161.766H116.23ZM133.949 166.922C135.043 166.922 135.98 167.164 136.762 167.648C137.543 168.133 138.141 168.812 138.555 169.688C138.969 170.555 139.176 171.57 139.176 172.734V173.941H130.305C130.328 175.449 130.703 176.598 131.43 177.387C132.156 178.176 133.18 178.57 134.5 178.57C135.312 178.57 136.031 178.496 136.656 178.348C137.281 178.199 137.93 177.98 138.602 177.691V179.402C137.953 179.691 137.309 179.902 136.668 180.035C136.035 180.168 135.285 180.234 134.418 180.234C133.184 180.234 132.105 179.984 131.184 179.484C130.27 178.977 129.559 178.234 129.051 177.258C128.543 176.281 128.289 175.086 128.289 173.672C128.289 172.289 128.52 171.094 128.98 170.086C129.449 169.07 130.105 168.289 130.949 167.742C131.801 167.195 132.801 166.922 133.949 166.922ZM133.926 168.516C132.887 168.516 132.059 168.855 131.441 169.535C130.824 170.215 130.457 171.164 130.34 172.383H137.137C137.129 171.617 137.008 170.945 136.773 170.367C136.547 169.781 136.199 169.328 135.73 169.008C135.262 168.68 134.66 168.516 133.926 168.516ZM148.316 166.922C148.574 166.922 148.844 166.938 149.125 166.969C149.406 166.992 149.656 167.027 149.875 167.074L149.629 168.879C149.418 168.824 149.184 168.781 148.926 168.75C148.668 168.719 148.426 168.703 148.199 168.703C147.684 168.703 147.195 168.809 146.734 169.02C146.281 169.223 145.883 169.52 145.539 169.91C145.195 170.293 144.926 170.758 144.73 171.305C144.535 171.844 144.438 172.445 144.438 173.109V180H142.48V167.156H144.098L144.309 169.523H144.391C144.656 169.047 144.977 168.613 145.352 168.223C145.727 167.824 146.16 167.508 146.652 167.273C147.152 167.039 147.707 166.922 148.316 166.922ZM178.293 162.867L173.711 180H171.707L168.309 168.469C168.207 168.141 168.109 167.812 168.016 167.484C167.93 167.148 167.848 166.832 167.77 166.535C167.691 166.23 167.625 165.965 167.57 165.738C167.523 165.504 167.488 165.328 167.465 165.211C167.449 165.328 167.418 165.5 167.371 165.727C167.332 165.953 167.277 166.215 167.207 166.512C167.145 166.809 167.066 167.125 166.973 167.461C166.887 167.797 166.793 168.137 166.691 168.48L163.387 180H161.383L156.836 162.867H158.91L161.664 173.613C161.758 173.973 161.844 174.328 161.922 174.68C162.008 175.023 162.082 175.359 162.145 175.688C162.215 176.016 162.277 176.336 162.332 176.648C162.387 176.961 162.438 177.266 162.484 177.562C162.523 177.258 162.574 176.941 162.637 176.613C162.699 176.277 162.766 175.938 162.836 175.594C162.914 175.25 162.996 174.902 163.082 174.551C163.176 174.199 163.273 173.848 163.375 173.496L166.457 162.867H168.508L171.719 173.578C171.828 173.945 171.93 174.309 172.023 174.668C172.117 175.027 172.199 175.379 172.27 175.723C172.348 176.059 172.414 176.383 172.469 176.695C172.531 177 172.586 177.289 172.633 177.562C172.688 177.18 172.754 176.777 172.832 176.355C172.91 175.934 173 175.492 173.102 175.031C173.211 174.57 173.328 174.094 173.453 173.602L176.207 162.867H178.293ZM185.512 166.945C187.043 166.945 188.18 167.289 188.922 167.977C189.664 168.664 190.035 169.762 190.035 171.27V180H188.617L188.242 178.102H188.148C187.789 178.57 187.414 178.965 187.023 179.285C186.633 179.598 186.18 179.836 185.664 180C185.156 180.156 184.531 180.234 183.789 180.234C183.008 180.234 182.312 180.098 181.703 179.824C181.102 179.551 180.625 179.137 180.273 178.582C179.93 178.027 179.758 177.324 179.758 176.473C179.758 175.191 180.266 174.207 181.281 173.52C182.297 172.832 183.844 172.457 185.922 172.395L188.137 172.301V171.516C188.137 170.406 187.898 169.629 187.422 169.184C186.945 168.738 186.273 168.516 185.406 168.516C184.734 168.516 184.094 168.613 183.484 168.809C182.875 169.004 182.297 169.234 181.75 169.5L181.152 168.023C181.73 167.727 182.395 167.473 183.145 167.262C183.895 167.051 184.684 166.945 185.512 166.945ZM188.113 173.672L186.156 173.754C184.555 173.816 183.426 174.078 182.77 174.539C182.113 175 181.785 175.652 181.785 176.496C181.785 177.23 182.008 177.773 182.453 178.125C182.898 178.477 183.488 178.652 184.223 178.652C185.363 178.652 186.297 178.336 187.023 177.703C187.75 177.07 188.113 176.121 188.113 174.855V173.672ZM196 180H194.043V161.766H196V180ZM202.07 180H200.113V161.766H202.07V180ZM211.129 166.922C212.223 166.922 213.16 167.164 213.941 167.648C214.723 168.133 215.32 168.812 215.734 169.688C216.148 170.555 216.355 171.57 216.355 172.734V173.941H207.484C207.508 175.449 207.883 176.598 208.609 177.387C209.336 178.176 210.359 178.57 211.68 178.57C212.492 178.57 213.211 178.496 213.836 178.348C214.461 178.199 215.109 177.98 215.781 177.691V179.402C215.133 179.691 214.488 179.902 213.848 180.035C213.215 180.168 212.465 180.234 211.598 180.234C210.363 180.234 209.285 179.984 208.363 179.484C207.449 178.977 206.738 178.234 206.23 177.258C205.723 176.281 205.469 175.086 205.469 173.672C205.469 172.289 205.699 171.094 206.16 170.086C206.629 169.07 207.285 168.289 208.129 167.742C208.98 167.195 209.98 166.922 211.129 166.922ZM211.105 168.516C210.066 168.516 209.238 168.855 208.621 169.535C208.004 170.215 207.637 171.164 207.52 172.383H214.316C214.309 171.617 214.188 170.945 213.953 170.367C213.727 169.781 213.379 169.328 212.91 169.008C212.441 168.68 211.84 168.516 211.105 168.516ZM223.809 178.641C224.129 178.641 224.457 178.613 224.793 178.559C225.129 178.504 225.402 178.438 225.613 178.359V179.871C225.387 179.973 225.07 180.059 224.664 180.129C224.266 180.199 223.875 180.234 223.492 180.234C222.812 180.234 222.195 180.117 221.641 179.883C221.086 179.641 220.641 179.234 220.305 178.664C219.977 178.094 219.812 177.305 219.812 176.297V168.68H217.984V167.73L219.824 166.969L220.598 164.18H221.77V167.156H225.531V168.68H221.77V176.238C221.77 177.043 221.953 177.645 222.32 178.043C222.695 178.441 223.191 178.641 223.809 178.641ZM236.523 176.484C236.523 177.305 236.316 177.996 235.902 178.559C235.496 179.113 234.91 179.531 234.145 179.812C233.387 180.094 232.48 180.234 231.426 180.234C230.527 180.234 229.75 180.164 229.094 180.023C228.438 179.883 227.863 179.684 227.371 179.426V177.633C227.895 177.891 228.52 178.125 229.246 178.336C229.973 178.547 230.715 178.652 231.473 178.652C232.582 178.652 233.387 178.473 233.887 178.113C234.387 177.754 234.637 177.266 234.637 176.648C234.637 176.297 234.535 175.988 234.332 175.723C234.137 175.449 233.805 175.188 233.336 174.938C232.867 174.68 232.219 174.398 231.391 174.094C230.57 173.781 229.859 173.473 229.258 173.168C228.664 172.855 228.203 172.477 227.875 172.031C227.555 171.586 227.395 171.008 227.395 170.297C227.395 169.211 227.832 168.379 228.707 167.801C229.59 167.215 230.746 166.922 232.176 166.922C232.949 166.922 233.672 167 234.344 167.156C235.023 167.305 235.656 167.508 236.242 167.766L235.586 169.324C235.055 169.098 234.488 168.906 233.887 168.75C233.285 168.594 232.672 168.516 232.047 168.516C231.148 168.516 230.457 168.664 229.973 168.961C229.496 169.258 229.258 169.664 229.258 170.18C229.258 170.578 229.367 170.906 229.586 171.164C229.812 171.422 230.172 171.664 230.664 171.891C231.156 172.117 231.805 172.383 232.609 172.688C233.414 172.984 234.109 173.293 234.695 173.613C235.281 173.926 235.73 174.309 236.043 174.762C236.363 175.207 236.523 175.781 236.523 176.484Z" fill="white"/>
</g>
<defs>
<clipPath id="clip0_68_2163">
<rect width="322" height="243" rx="10" fill="white"/>
</clipPath>
</defs>
</svg>
